<svg width="141" height="34" viewBox="0 0 141 34" fill="none" xmlns="http://www.w3.org/2000/svg">
<path d="M16.5 0C7.4 0 0 7.5 0 16.8C0 26.1 7.4 33.6 16.5 33.6C25.6 33.6 33 26.1 33 16.8C33.1 7.5 25.7 0 16.5 0ZM16.5 33.4C7.5 33.4 0.2 26 0.2 16.9C0.2 7.8 7.5 0.4 16.5 0.4C25.5 0.4 32.8 7.8 32.8 16.9C32.8 25.9 25.5 33.4 16.5 33.4Z" fill="white"/>
<path d="M16.5 2.90002C8.99999 2.90002 2.79999 9.10002 2.79999 16.8C2.79999 24.5 8.99999 30.7 16.5 30.7C24.1 30.7 30.2 24.4 30.2 16.8C30.3 9.10002 24.1 2.90002 16.5 2.90002ZM16.5 30.5C9.09999 30.5 3.09999 24.4 3.09999 16.8C3.09999 9.30002 9.09999 3.10002 16.5 3.10002C23.9 3.10002 30 9.30002 30 16.8C30 24.4 24 30.5 16.5 30.5Z" fill="white"/>
<path d="M23.1 7.1V8.2L23.4 8.4V7.1C23.4 6.8 23.1 6.5 22.8 6.5H10.3C10 6.5 9.70001 6.8 9.70001 7.1V8.4L10 8.2V7.1C10 6.9 10.1 6.8 10.3 6.8H22.9C23 6.8 23.1 6.9 23.1 7.1Z" fill="white"/>
<path d="M23.3 20.1C23.2 20.1 23.2 20.1 23.2 20.2V20.3V25.2C23.2 26.6 22 27.8 20.6 27.8H17.9C17.8 27.8 17.6 27.8 17.5 27.8C17.3 27.8 17 28 16.9 28.1L16.8 28.2C16.7 28.3 16.5 28.3 16.4 28.2C16.4 28.2 16.1 27.9 15.9 27.9C15.9 27.9 15.8 27.9 15.7 27.9C15.6 27.9 15.5 27.9 15.5 27.9H12.6C11.2 27.9 10 26.7 10 25.3V20.3C10 20.2 10 20.2 9.90001 20.2H9.80001C9.70001 20.2 9.70001 20.2 9.70001 20.3V25.3C9.70001 26.9 11 28.2 12.6 28.2H15.5C15.5 28.2 15.5 28.2 15.6 28.2C15.8 28.2 15.9 28.2 15.9 28.2C16 28.2 16.2 28.4 16.3 28.5C16.4 28.6 16.6 28.7 16.7 28.7C16.9 28.7 17 28.6 17.1 28.5C17.1 28.5 17.1 28.5 17.2 28.4C17.3 28.3 17.5 28.2 17.6 28.2C17.6 28.2 17.8 28.2 17.9 28.2H20.6C22.2 28.2 23.5 26.9 23.5 25.3V20.3C23.5 20.2 23.5 20.2 23.4 20.2H23.3V20.1Z" fill="white"/>
<path d="M11.2 8.60007C11.5 8.40007 10.6 8.40007 10.9 8.60007C10.9 8.70007 11 8.60007 11.2 8.60007Z" fill="white"/>
<path d="M10.5 8.90005C10.6 8.90005 10.6 8.70005 10.5 8.70005C10.5 8.70005 10.4 8.70005 10.3 8.70005V8.60005C10.3 8.60005 10.3 8.60005 10.4 8.50005H10.5C10.6 8.50005 10.6 8.50005 10.6 8.40005C10.6 8.40005 10.6 8.30005 10.5 8.30005C10.4 8.30005 10.3 8.30005 10.3 8.30005L10.2 8.40005C10.2 8.50005 10.2 8.50005 10.2 8.60005C10.2 8.80005 10.3 8.90005 10.5 8.90005Z" fill="white"/>
<path d="M10.2 9.6001C10.5 9.7001 10.4 10.0001 10.5 9.9001C10.6 9.8001 10.8 10.2001 10.8 10.0001C10.8 9.9001 10.7 9.6001 10.4 9.5001C10.1 9.3001 10.3 9.1001 10.3 9.1001C10.3 9.1001 9.89998 9.5001 10.2 9.6001Z" fill="white"/>
<path d="M12.2 10.8C12.8 10.8 12.8 10.5 12.6 10.3C12.5 10.2 12.3 10 12.1 10.2C12 10.3 11.9 10.2 11.8 10.3C11.7 10.3 11.5 10.4 11.3 10.4C11.4 10.3 11.4 10.1 11.4 9.90005C11.6 9.80005 11.9 9.80005 11.8 9.50005C11.8 9.40005 11.8 9.40005 11.7 9.40005C11.6 9.40005 11.5 9.40005 11.4 9.30005C11.3 9.20005 11.3 9.10005 11.4 9.00005C11.4 9.00005 11.5 9.10005 11.6 9.10005C11.7 9.10005 11.7 9.10005 11.8 9.10005C12 9.10005 12.2 9.00005 12.2 8.90005C12.2 8.80005 12 8.90005 11.9 8.90005C11.8 8.90005 11.7 8.90005 11.6 8.80005C11.7 8.70005 11.9 8.60005 11.9 8.50005C11.9 8.50005 11.9 8.50005 11.9 8.40005C11.9 8.40005 11.9 8.40005 11.9 8.30005C11.9 8.20005 11.9 8.10005 11.9 8.10005C11.9 8.10005 11.9 8.10005 11.8 8.10005C11.8 8.10005 11.8 8.10005 11.7 8.10005C11.3 8.10005 10.9 7.80005 10.5 7.80005C10.5 7.80005 10.4 7.80005 10.2 7.90005L9.99999 8.00005H9.89999C9.79999 8.00005 9.69999 8.00005 9.69999 8.10005C9.29999 8.40005 8.99999 8.50005 8.99999 8.90005C9.19999 8.80005 9.39999 8.80005 9.59999 8.80005C9.29999 8.90005 8.89999 9.00005 8.79999 9.30005C8.79999 9.40005 8.69999 9.40005 8.79999 9.50005V9.60005C8.89999 9.60005 8.89999 9.50005 8.99999 9.50005H9.09999C8.79999 9.60005 8.69999 10 8.79999 10.3C8.89999 10.4 8.99999 10.6 9.09999 10.6C9.09999 11.3 8.99999 11.2 8.39999 11.5C7.99999 11.7 7.69999 11.8 7.59999 11.7C7.29999 11.5 7.59999 11.2 7.79999 10.9C9.19999 9.60005 6.79999 9.20005 6.79999 10.3C6.79999 10.3 6.79999 10.3 6.69999 10.3C6.59999 10.4 6.59999 10.7 6.79999 10.7C6.99999 10.8 7.09999 10.9 7.09999 10.9C7.09999 10.9 7.19999 10.7 7.19999 10.5C7.19999 10.3 7.09999 10.2 6.99999 10.3C6.99999 9.90005 7.79999 9.70005 7.99999 10.1C8.19999 10.6 7.39999 11 7.29999 11.4C7.19999 11.7 7.39999 12 7.69999 12C7.69999 12.1 7.69999 12.3 7.69999 12.4C7.69999 12.7 6.99999 12.7 7.59999 13.2C7.29999 14 7.59999 14 8.29999 14C8.89999 14.1 8.89999 13.4 8.29999 13.5C8.19999 12.9 8.49999 13.2 8.99999 12.9C9.19999 12.8 9.29999 12.7 9.49999 12.7C9.69999 12.7 9.89999 12.9 9.89999 13.2C9.79999 13.8 10.3 13.7 10.7 13.7C11.3 13.9 11.5 13 10.7 13.2C10.7 13 10.7 12.8 10.7 12.6C10.7 12.5 10.6 12.5 10.6 12.4C10.5 12.3 10.5 12.3 10.4 12.3C10.4 12.2 10.3 12.2 10.3 12.1C10.4 12 10.6 11.9 10.7 11.8C11.1 12 11.2 11.5 11.7 11.6C11.9 11.6 12.1 11.6 12.3 11.6C12.6 11.5 12.7 11.4 12.6 11.2C12.6 11.1 12.5 11 12.3 11C12.1 11 11.9 11.2 11.7 11.2C11.7 11.2 11.8 11.1 11.9 11.1C11.9 10.8 12.1 10.8 12.2 10.8ZM8.99999 10.3C8.79999 9.60005 9.59999 9.40005 9.59999 9.40005C9.49999 9.20005 9.29999 9.20005 9.09999 9.20005C9.19999 9.10005 9.79999 8.90005 9.89999 8.90005H9.99999C9.89999 8.60005 9.59999 8.60005 9.29999 8.60005C9.49999 8.40005 9.99999 8.40005 10.3 8.20005C10.4 8.20005 10.5 8.10005 10.5 8.10005C10.8 8.10005 11 8.30005 11.6 8.40005C11.6 8.50005 11.6 8.50005 11.6 8.60005C11.1 8.80005 10.9 9.60005 11.5 9.60005C11.4 9.70005 11.3 9.70005 11.2 9.70005C11.2 9.60005 11.1 9.50005 11 9.50005C10.9 9.40005 10.9 9.40005 10.7 9.20005L10.6 9.10005C10.6 9.10005 10.9 9.40005 11 9.60005C11.1 9.80005 11.1 10.1 11 10.3C10.9 10.3 10.9 10.3 10.8 10.2C10.7 10.2 10.6 10.1 10.5 10.1C10.3 10.1 10.2 10 10.1 10C9.89999 10 9.69999 10.1 9.59999 10.1C9.49999 10.1 9.29999 10.3 9.29999 10.3H9.19999C9.09999 10.4 9.09999 10.4 8.99999 10.3ZM10.2 12.4C10.8 12.6 10.1 13.6 10.9 13.4C11 13.4 11 13.4 11 13.4C11.1 13.6 10.7 13.5 10.5 13.5C9.49999 13.7 10.7 12.6 9.39999 12.5C9.49999 12.3 9.69999 12.1 9.89999 12.1C10.1 12.2 10.2 12.4 10.2 12.4ZM11.7 11.2C11.9 11.2 12.1 11.1 12.2 11H12.3C12.6 11.3 11.8 11.3 11.7 11.2C11.1 11.2 10.9 11.7 10.7 11.5C10.7 11.4 10.6 11.2 10.5 11.2C10.4 11.2 10.4 11.2 10.4 11.2C10.4 11.2 10.4 11.3 10.5 11.4C10.5 11.5 10.5 11.6 10.5 11.6C10.5 11.7 10.4 11.7 10.4 11.7C10.3 11.8 10.1 11.9 9.99999 11.9C9.79999 12 9.69999 12 9.59999 12.1C9.39999 12.4 9.19999 12.6 8.89999 12.7C8.69999 12.8 8.49999 12.8 8.39999 12.9C8.19999 13 8.29999 13.2 8.29999 13.3C8.29999 13.6 8.39999 13.7 8.69999 13.7C8.79999 13.9 8.39999 13.8 8.29999 13.8C7.49999 13.9 8.09999 13.5 7.99999 13.1C7.59999 12.7 7.89999 12.9 8.09999 12.5C8.19999 12.3 7.89999 12 8.19999 11.9C10.5 11.2 8.89999 11 9.79999 10.5C9.89999 10.8 10.1 10.7 10.2 10.4C10.3 10.6 10.5 10.6 10.6 10.4C10.6 10.5 10.8 10.6 11 10.5C11 11 11.2 11.1 11.7 11.2ZM11.7 10.7C11.6 10.7 11.5 10.8 11.5 10.9C11.4 10.8 11.3 10.8 11.2 10.6C11.4 10.7 11.7 10.6 11.9 10.5C12.2 10.5 12.2 10.5 12.4 10.3C12.7 10.5 12.6 10.6 12.2 10.6C12 10.6 11.8 10.6 11.7 10.7Z" fill="white"/>
<path d="M10.3 14.8C10.6 14.6 9.7 14.6 10 14.8C10.1 14.9 10.1 14.7 10.3 14.8Z" fill="white"/>
<path d="M9.60002 15C9.70002 15 9.70002 14.8 9.60002 14.8C9.60002 14.8 9.50002 14.8 9.40002 14.8V14.7C9.40002 14.7 9.40002 14.7 9.50002 14.6H9.60002C9.70002 14.6 9.70002 14.6 9.70002 14.5C9.70002 14.5 9.70002 14.4 9.60002 14.4C9.50002 14.4 9.40002 14.4 9.40002 14.4L9.30002 14.5C9.30002 14.6 9.30002 14.6 9.30002 14.7C9.40002 15 9.50002 15.1 9.60002 15Z" fill="white"/>
<path d="M9.30002 15.8C9.60002 15.9 9.50002 16.2 9.60002 16.1C9.70002 16.1 9.90002 16.4 9.90002 16.2C9.90002 16.1 9.80002 15.8 9.50002 15.7C9.20002 15.5 9.40002 15.3 9.40002 15.3C9.40002 15.3 9.00002 15.6 9.30002 15.8Z" fill="white"/>
<path d="M11.3 16.9C11.9 16.9 11.9 16.6 11.7 16.4C11.6 16.3 11.4 16.1 11.2 16.3C11.1 16.4 11 16.3 10.9 16.4C10.8 16.4 10.6 16.5 10.4 16.5C10.5 16.4 10.5 16.2 10.5 16C10.7 15.9 11 15.9 10.9 15.6C10.9 15.5 10.9 15.5 10.8 15.5C10.7 15.5 10.6 15.5 10.5 15.4C10.4 15.3 10.4 15.2 10.5 15.1C10.5 15.1 10.6 15.2 10.7 15.2C10.8 15.2 10.8 15.2 10.9 15.2C11.1 15.2 11.3 15.1 11.3 15C11.3 14.9 11.1 15 11 15C10.9 15 10.8 15 10.7 14.9C10.8 14.8 11 14.7 11 14.6C11 14.6 11 14.6 11 14.5C11 14.5 11 14.5 11 14.4C11 14.3 11 14.2 11 14.2C11 14.2 11 14.2 10.9 14.2C10.9 14.2 10.9 14.2 10.8 14.2C10.4 14.2 10 13.9 9.60001 13.9C9.60001 13.9 9.50001 13.9 9.30001 14L9.10001 14.1C8.70001 14.2 8.20001 14.3 8.10001 14.8C8.30001 15 8.60001 15 8.70001 15C8.50001 15 8.10001 15.2 8.00001 15.4C8.00001 15.5 7.90001 15.5 8.00001 15.6V15.7C8.10001 15.7 8.10001 15.6 8.20001 15.6H8.30001C8.00001 15.7 7.90001 16.1 8.00001 16.4C8.10001 16.5 8.20001 16.7 8.30001 16.7C8.30001 17.4 8.20001 17.3 7.60001 17.6C7.20001 17.9 7.00001 18 6.80001 17.9C6.50001 17.7 6.80001 17.4 7.00001 17.1C8.40001 15.8 6.00001 15.4 6.00001 16.5C6.00001 16.5 6.00001 16.5 5.90001 16.5C5.80001 16.6 5.80001 16.9 6.00001 16.9C6.20001 17 6.30001 17.1 6.30001 17.1C6.30001 17.1 6.40001 16.9 6.40001 16.7C6.40001 16.5 6.30001 16.4 6.20001 16.5C6.20001 16.1 7.00001 15.9 7.20001 16.3C7.40001 16.8 6.60001 17.2 6.50001 17.6C6.40001 18 6.60001 18.3 6.90001 18.3C6.90001 18.4 6.90001 18.6 6.90001 18.7C6.90001 19 6.20001 19 6.80001 19.5C6.50001 20.3 6.80001 20.3 7.50001 20.3C8.10001 20.4 8.10001 19.7 7.50001 19.8C7.40001 19.2 7.70001 19.5 8.20001 19.2C8.40001 19.1 8.50001 19 8.70001 19C8.90001 19 9.10001 19.2 9.10001 19.5C9.00001 20 9.5 19.9 9.9 19.9C10.5 20.1 10.7 19.2 9.9 19.4C9.9 19.2 9.9 19 9.9 18.8C9.9 18.7 9.80001 18.7 9.80001 18.6C9.70001 18.5 9.70001 18.5 9.60001 18.5C9.60001 18.4 9.50001 18.4 9.50001 18.3C9.60001 18.2 9.8 18.1 9.9 18C10.3 18.2 10.4 17.7 10.9 17.8C11.1 17.8 11.3 17.8 11.5 17.8C11.8 17.7 11.9 17.6 11.8 17.4C11.8 17.3 11.7 17.2 11.5 17.2C11.3 17.2 11.1 17.4 10.9 17.4C10.9 17.4 11 17.3 11.1 17.3C11.1 17 11.3 16.9 11.3 16.9ZM8.20001 16.5C8.20001 16.4 8.20001 16.4 8.20001 16.5C8.00001 15.8 8.70001 15.6 8.70001 15.6C8.60001 15.4 8.40001 15.3 8.20001 15.4C8.40001 15.3 9.00001 15.1 9.10001 15H9.20001C9.10001 14.8 8.80001 14.7 8.50001 14.8C8.70001 14.6 9.20001 14.6 9.50001 14.4C9.60001 14.4 9.70001 14.3 9.70001 14.3C10 14.3 10.2 14.5 10.8 14.6C10.8 14.7 10.8 14.7 10.8 14.8C10.3 15 10.1 15.8 10.7 15.8C10.6 15.9 10.5 15.9 10.4 15.9C10.4 15.8 10.3 15.7 10.2 15.7C10.1 15.6 10.1 15.6 9.9 15.4L9.80001 15.3C9.80001 15.3 10.1 15.6 10.2 15.8C10.3 16 10.3 16.3 10.2 16.5C10.1 16.5 10.1 16.5 10 16.4C9.90001 16.4 9.80001 16.3 9.70001 16.3C9.30001 16.2 9.00001 16.2 8.80001 16.3C8.70001 16.3 8.50001 16.5 8.50001 16.5H8.40001C8.30001 16.6 8.30001 16.5 8.20001 16.5ZM9.40001 18.6C10 18.8 9.30001 19.8 10.1 19.6C10.2 19.6 10.2 19.6 10.2 19.6C10.3 19.8 9.90001 19.7 9.70001 19.7C8.70001 19.9 9.90001 18.8 8.60001 18.7C8.70001 18.5 8.90001 18.3 9.10001 18.3C9.20001 18.4 9.30001 18.5 9.40001 18.6ZM10.9 17.4C11.1 17.4 11.3 17.3 11.4 17.2H11.5C11.8 17.5 11 17.5 10.9 17.4C10.3 17.4 10.1 17.9 9.9 17.7C9.9 17.6 9.80001 17.4 9.70001 17.4C9.60001 17.4 9.60001 17.4 9.60001 17.4C9.60001 17.4 9.60001 17.5 9.70001 17.6C9.70001 17.7 9.70001 17.8 9.70001 17.8C9.70001 17.9 9.60001 17.9 9.60001 17.9C9.40001 18.1 9.00001 18.1 8.80001 18.4C8.50001 18.7 8.30001 18.8 8.00001 19C7.80001 19 7.60001 19 7.50001 19.1C7.30001 19.2 7.40001 19.4 7.40001 19.5C7.40001 19.8 7.50001 19.9 7.80001 19.9C7.90001 20.1 7.50001 20 7.40001 20C6.60001 20.1 7.20001 19.7 7.10001 19.3C6.70001 18.9 7.00001 19.1 7.20001 18.7C7.30001 18.5 7.00001 18.2 7.30001 18.1C9.60001 17.4 8.00001 17.2 8.90001 16.7C9.00001 17 9.20001 16.9 9.30001 16.6C9.40001 16.8 9.60001 16.8 9.70001 16.6C9.70001 16.7 9.90001 16.8 10.1 16.7C10.2 17.2 10.4 17.3 10.9 17.4ZM10.8 16.9C10.7 16.9 10.6 17 10.6 17.1C10.5 17 10.4 17 10.3 16.8C10.5 16.9 10.8 16.8 11 16.7C11.3 16.7 11.3 16.7 11.5 16.5C11.8 16.7 11.7 16.8 11.3 16.8C11.2 16.8 11 16.8 10.8 16.9Z" fill="white"/>
<path d="M22 8.60007C21.7 8.40007 22.6 8.40007 22.3 8.60007C22.2 8.70007 22.2 8.60007 22 8.60007Z" fill="white"/>
<path d="M22.7 8.90005C22.6 8.90005 22.6 8.70005 22.7 8.70005C22.7 8.70005 22.8 8.70005 22.9 8.70005V8.60005C22.9 8.60005 22.9 8.60005 22.8 8.50005H22.7C22.6 8.50005 22.6 8.50005 22.6 8.40005C22.6 8.40005 22.6 8.30005 22.7 8.30005C22.8 8.30005 22.9 8.30005 22.9 8.30005L23 8.40005C23 8.50005 23 8.50005 23 8.60005C22.9 8.80005 22.8 8.90005 22.7 8.90005Z" fill="white"/>
<path d="M23 9.6001C22.7 9.7001 22.8 10.0001 22.7 9.9001C22.6 9.9001 22.4 10.2001 22.4 10.0001C22.4 9.9001 22.5 9.6001 22.8 9.5001C23.1 9.4001 23 9.1001 23 9.1001C23 9.1001 23.3 9.5001 23 9.6001Z" fill="white"/>
<path d="M26.3 10.3001C26.2 9.20006 23.9 9.60006 25.2 10.9001C25.5 11.2001 25.7 11.5001 25.4 11.7001C25.2 11.8001 25 11.7001 24.6 11.5001C24 11.3001 23.9 11.3001 23.9 10.6001C24 10.5001 24.1 10.4001 24.2 10.3001C24.3 9.90006 24.2 9.60006 23.9 9.50006H24C24.1 9.50006 24.1 9.50006 24.2 9.60006C24.2 9.60006 24.2 9.60006 24.2 9.50006C24.2 9.40006 24.2 9.40006 24.2 9.30006C24.1 9.10006 23.7 8.90006 23.4 8.80006C23.6 8.80006 23.8 8.90006 24 8.90006C23.9 8.50006 23.6 8.40006 23.3 8.30006C23.2 8.30006 23.1 8.20006 23 8.20006C22.9 8.20006 22.8 8.10006 22.8 8.10006C22.7 8.10006 22.7 8.00006 22.6 8.00006C22.5 8.00006 22.5 8.00006 22.5 8.00006C22.1 7.90006 21.7 8.30006 21.3 8.30006C21.3 8.30006 21.3 8.30006 21.2 8.30006C21.2 8.30006 21.2 8.30006 21.1 8.30006C21.1 8.40006 21.1 8.50006 21.1 8.50006C21.1 8.50006 21.1 8.50006 21.1 8.60006C21.1 8.60006 21.1 8.60006 21.1 8.70006C21.1 8.80006 21.3 8.90006 21.4 9.00006C21.3 9.10006 21.2 9.10006 21.1 9.10006C21 9.10006 20.8 8.90006 20.8 9.10006C20.8 9.30006 21 9.40006 21.2 9.30006C21.3 9.30006 21.3 9.30006 21.4 9.30006C21.5 9.30006 21.5 9.20006 21.6 9.20006C21.6 9.30006 21.7 9.40006 21.6 9.50006C21.5 9.60006 21.4 9.60006 21.3 9.60006C21.2 9.60006 21.2 9.60006 21.2 9.70006C21.1 10.0001 21.4 10.0001 21.6 10.1001C21.6 10.2001 21.6 10.5001 21.7 10.6001C21.5 10.6001 21.4 10.5001 21.2 10.5001C21.1 10.5001 21 10.5001 20.9 10.4001C20.7 10.2001 20.5 10.3001 20.4 10.5001C20.2 10.7001 20.3 10.9001 20.8 11.0001C20.9 11.0001 21.1 11.1001 21.1 11.1001C21.2 11.1001 21.3 11.2001 21.3 11.2001C21.1 11.3001 20.9 11.0001 20.7 11.0001C20.5 11.0001 20.5 11.1001 20.4 11.2001C20.3 11.4001 20.5 11.6001 20.7 11.6001C20.9 11.6001 21.1 11.7001 21.3 11.6001C21.9 11.5001 21.9 12.0001 22.3 11.8001C22.3 11.9001 22.5 12.1001 22.7 12.1001C22.6 12.2001 22.6 12.2001 22.6 12.3001C22.5 12.4001 22.5 12.4001 22.4 12.4001C22.3 12.5001 22.3 12.5001 22.3 12.6001C22.2 12.8001 22.3 13.0001 22.3 13.2001C21.5 13.0001 21.7 13.9001 22.3 13.7001C22.7 13.7001 23.2 13.8001 23.1 13.2001C23 12.9001 23.2 12.8001 23.5 12.7001C23.7 12.7001 23.9 12.8001 24 12.9001C24.4 13.1001 24.7 12.9001 24.7 13.5001C24.1 13.4001 24.1 14.1001 24.7 14.0001C25.4 14.1001 25.7 14.0001 25.4 13.2001C26.1 12.6001 25.4 12.7001 25.3 12.4001C25.3 12.3001 25.4 12.1001 25.3 12.0001C25.6 12.0001 25.8 11.7001 25.7 11.3001C25.6 10.9001 24.8 10.5001 25 10.0001C25.2 9.70006 26 9.90006 26 10.2001C25.8 10.1001 25.7 10.3001 25.8 10.4001C25.8 10.6001 25.9 10.8001 25.9 10.8001C25.9 10.8001 26 10.7001 26.2 10.6001C26.5 10.7001 26.4 10.4001 26.3 10.3001ZM21.8 9.80006C21.7 9.80006 21.6 9.70006 21.5 9.70006C22.2 9.60006 21.9 8.80006 21.4 8.70006C21.4 8.60006 21.4 8.60006 21.4 8.50006C22 8.40006 22.2 8.20006 22.5 8.20006C22.6 8.20006 22.7 8.20006 22.7 8.30006C23 8.40006 23.5 8.50006 23.7 8.70006C23.4 8.60006 23.1 8.70006 23 8.90006H23.1C23.2 8.90006 23.8 9.10006 23.9 9.20006C23.7 9.20006 23.5 9.20006 23.4 9.40006C23.4 9.40006 24.1 9.60006 24 10.2001V10.3001C24 10.4001 23.9 10.4001 23.9 10.4001C23.8 10.4001 23.8 10.4001 23.8 10.4001C23.8 10.4001 23.5 10.3001 23.5 10.2001C23.2 10.1001 23 10.0001 22.6 10.2001C22.5 10.2001 22.4 10.3001 22.3 10.3001C22.2 10.3001 22.1 10.4001 22.1 10.4001C22 10.2001 22 9.90006 22.1 9.70006C22.2 9.50006 22.5 9.20006 22.5 9.20006C22.4 9.20006 22.4 9.20006 22.4 9.30006C22 9.40006 22 9.50006 22 9.50006C21.9 9.60006 21.9 9.70006 21.8 9.80006ZM21 10.6001C20.6 10.6001 20.5 10.5001 20.8 10.3001C21 10.5001 21 10.5001 21.3 10.5001C21.5 10.6001 21.8 10.7001 22 10.6001C21.9 10.8001 21.8 10.8001 21.7 10.9001C21.6 10.9001 21.5 10.8001 21.5 10.7001C21.3 10.6001 21.2 10.6001 21 10.6001ZM22.6 13.5001C22.5 13.5001 22.1 13.6001 22.1 13.4001H22.2C23 13.6001 22.3 12.6001 22.9 12.4001C23 12.3001 23 12.2001 23.1 12.2001C23.3 12.2001 23.5 12.4001 23.6 12.6001C22.4 12.7001 23.6 13.7001 22.6 13.5001ZM25.3 13.1001C25.2 13.5001 25.7 13.9001 25 13.8001C24.9 13.8001 24.5 13.9001 24.6 13.7001C24.9 13.7001 25 13.6001 25 13.3001C25 13.2001 25 13.0001 24.9 12.9001C24.7 12.8001 24.5 12.8001 24.4 12.7001C24.1 12.6001 23.9 12.4001 23.7 12.1001C23.5 11.8001 23.1 11.9001 22.9 11.6001L22.8 11.5001C22.8 11.4001 22.8 11.4001 22.8 11.3001C22.8 11.2001 22.9 11.2001 22.9 11.1001H22.8C22.7 11.1001 22.6 11.3001 22.6 11.4001C22.4 11.6001 22.2 11.1001 21.6 11.2001C21.4 11.2001 20.6 11.2001 20.9 11.0001C20.9 11.0001 20.9 11.0001 21 11.0001C21.2 11.0001 21.3 11.2001 21.5 11.2001C22 11.1001 22.2 11.0001 22.4 10.6001C22.6 10.7001 22.8 10.6001 22.8 10.5001C22.9 10.7001 23.2 10.7001 23.2 10.5001C23.3 10.7001 23.5 10.9001 23.6 10.6001C24.5 11.1001 22.9 11.3001 25.2 12.0001C25.5 12.2001 25.2 12.4001 25.3 12.6001C25.4 12.9001 25.7 12.7001 25.3 13.1001Z" fill="white"/>
<path d="M22.8 14.8C22.5 14.6 23.4 14.6 23.1 14.8C23.1 14.9 23 14.7 22.8 14.8Z" fill="white"/>
<path d="M23.5 15C23.4 15 23.4 14.8 23.5 14.8C23.5 14.8 23.6 14.8 23.7 14.8V14.7C23.7 14.7 23.7 14.7 23.6 14.6H23.5C23.4 14.6 23.4 14.6 23.4 14.5C23.4 14.5 23.4 14.4 23.5 14.4C23.6 14.4 23.7 14.4 23.7 14.4L23.8 14.5C23.8 14.6 23.8 14.6 23.8 14.7C23.8 15 23.6 15.1 23.5 15Z" fill="white"/>
<path d="M23.8 15.8C23.5 15.9 23.6 16.2 23.5 16.1C23.4 16.1 23.2 16.4 23.2 16.2C23.2 16.1 23.3 15.8 23.6 15.7C23.9 15.5 23.7 15.3 23.7 15.3C23.7 15.3 24.1 15.6 23.8 15.8Z" fill="white"/>
<path d="M27.2 16.5C27.1 16.5 27.1 16.5 27.2 16.5C27.1 15.4 24.8 15.8 26.1 17.1C26.4 17.4 26.6 17.7 26.3 17.9C26.1 18 25.9 17.9 25.5 17.7C24.9 17.5 24.8 17.5 24.8 16.8C24.9 16.7 25 16.6 25.1 16.5C25.2 16.1 25.1 15.8 24.8 15.7H24.9C25 15.7 25 15.7 25.1 15.8C25.1 15.8 25.1 15.8 25.1 15.7C25.1 15.6 25.1 15.6 25.1 15.5C25 15.3 24.6 15.1 24.3 15C24.5 15 24.7 15.1 24.9 15.1C24.8 14.5 24.3 14.5 23.9 14.4L23.7 14.3C23.6 14.3 23.6 14.3 23.5 14.2C23.4 14.2 23.4 14.2 23.4 14.2C23 14.1 22.6 14.5 22.2 14.5C22.2 14.5 22.2 14.5 22.1 14.5C22.1 14.5 22.1 14.5 22 14.5C22 14.6 22 14.7 22 14.7C22 14.7 22 14.7 22 14.8C22 14.8 22 14.8 22 14.9C22 15 22.2 15.1 22.3 15.2C22.2 15.3 22.1 15.3 22 15.3C21.9 15.3 21.7 15.1 21.7 15.3C21.7 15.5 21.9 15.6 22.1 15.5C22.2 15.5 22.2 15.5 22.3 15.5C22.4 15.5 22.4 15.4 22.5 15.4C22.5 15.5 22.6 15.6 22.5 15.7C22.4 15.8 22.3 15.8 22.2 15.8C22.1 15.8 22.1 15.8 22.1 15.9C22 16.2 22.3 16.2 22.5 16.3C22.5 16.4 22.5 16.7 22.6 16.8C22.4 16.8 22.3 16.7 22.1 16.7C22 16.7 21.9 16.7 21.8 16.6C21.5 16.4 21.4 16.5 21.3 16.7C21.1 16.9 21.2 17.1 21.7 17.2C21.8 17.2 22 17.3 22 17.3C22.1 17.3 22.2 17.4 22.2 17.4C22 17.5 21.8 17.2 21.6 17.2C21.4 17.2 21.4 17.3 21.3 17.4C21.2 17.6 21.4 17.8 21.6 17.8C21.8 17.8 22 17.9 22.2 17.8C22.8 17.7 22.8 18.2 23.2 18C23.2 18.1 23.4 18.3 23.6 18.3C23.5 18.4 23.5 18.4 23.5 18.5C23.4 18.6 23.4 18.6 23.3 18.6C23.2 18.7 23.2 18.7 23.2 18.8C23.1 19 23.2 19.2 23.2 19.4C22.4 19.2 22.6 20.1 23.2 19.9C23.6 19.9 24.1 20 24 19.4C23.9 19.1 24.1 19 24.4 18.9C24.6 18.9 24.8 19 24.9 19.1C25.3 19.3 25.6 19.1 25.6 19.7C25 19.6 25 20.3 25.6 20.2C26.3 20.3 26.6 20.2 26.3 19.4C27 18.8 26.3 18.9 26.2 18.6C26.2 18.5 26.3 18.3 26.2 18.2C26.5 18.2 26.7 17.9 26.6 17.5C26.5 17.1 25.7 16.7 25.9 16.2C26.1 15.9 26.9 16.1 26.9 16.4C26.7 16.3 26.6 16.5 26.7 16.6C26.7 16.8 26.8 17 26.8 17C26.8 17 26.9 16.9 27.1 16.8C27.3 16.9 27.2 16.6 27.2 16.5ZM22.6 16C22.5 16 22.4 15.9 22.3 15.9C23 15.8 22.7 15 22.2 14.9C22.2 14.8 22.2 14.8 22.2 14.7C22.8 14.6 23 14.4 23.3 14.4C23.4 14.4 23.5 14.4 23.5 14.5C23.8 14.6 24.3 14.7 24.5 14.9C24.2 14.8 23.9 14.9 23.8 15.1H23.9C24 15.1 24.6 15.3 24.7 15.4C24.5 15.4 24.3 15.4 24.2 15.6C24.2 15.6 24.9 15.8 24.8 16.4V16.5C24.8 16.6 24.7 16.6 24.7 16.6C24.6 16.6 24.6 16.6 24.6 16.6C24.6 16.6 24.3 16.5 24.3 16.4C24 16.3 23.8 16.2 23.4 16.4C23.3 16.4 23.2 16.5 23.1 16.5C23 16.5 22.9 16.6 22.9 16.6C22.8 16.4 22.8 16.1 22.9 15.9C23 15.7 23.3 15.4 23.3 15.4C23.2 15.4 23.2 15.4 23.2 15.5C22.9 15.7 22.9 15.7 22.9 15.8C22.7 15.8 22.7 15.9 22.6 16ZM21.8 16.8C21.4 16.8 21.3 16.7 21.6 16.5C21.8 16.7 21.8 16.7 22.1 16.7C22.3 16.8 22.6 16.9 22.8 16.8C22.7 17 22.6 17 22.5 17.1C22.4 17.1 22.3 17 22.3 16.9C22.1 16.8 22 16.8 21.8 16.8ZM23.4 19.7C23.3 19.7 22.9 19.8 22.9 19.6H23C23.8 19.8 23.1 18.8 23.7 18.6C23.8 18.5 23.8 18.4 23.9 18.4C24.1 18.4 24.3 18.6 24.4 18.8C23.2 18.8 24.4 19.9 23.4 19.7ZM26.1 19.3C26 19.7 26.5 20.1 25.8 20C25.7 20 25.3 20.1 25.4 19.9C25.7 19.9 25.8 19.8 25.8 19.5C25.8 19.4 25.8 19.2 25.7 19.1C25.5 19 25.3 19 25.2 19C24.9 18.9 24.7 18.7 24.5 18.4C24.3 18.1 23.9 18.2 23.7 17.9L23.6 17.8C23.6 17.7 23.6 17.7 23.6 17.6C23.6 17.5 23.7 17.5 23.7 17.4H23.6C23.5 17.4 23.4 17.6 23.4 17.7C23.2 17.9 23 17.4 22.4 17.5C22.2 17.5 21.4 17.5 21.7 17.3C21.7 17.3 21.7 17.3 21.8 17.3C22 17.3 22.1 17.5 22.3 17.5C22.8 17.4 23 17.3 23.2 16.9C23.4 17 23.6 16.9 23.6 16.8C23.7 17 24 17 24 16.8C24.1 17 24.3 17.2 24.4 16.9C25.3 17.4 23.7 17.6 26 18.3C26.3 18.5 26 18.7 26.1 18.9C26.2 19 26.6 18.9 26.1 19.3Z" fill="white"/>
<path d="M13.2 10.4C13 10.5 12.9 10.8 12.9 11V17C13 16.9 13.1 16.8 13.1 16.6V11C13.1 10.9 13.2 10.8 13.2 10.7C13.8 10.2 15.8 8.40002 16.4 7.80002C16.5 7.70002 16.7 7.70002 16.8 7.80002C17.4 8.40002 19.3 10.2 19.8 10.7C19.9 10.8 19.9 10.9 19.9 11C19.9 11.9 19.9 15.6 19.9 16.6C19.9 16.8 20 16.9 20.1 17V10.9C20.1 10.8 20 10.7 20 10.6L16.8 7.60002C16.7 7.50002 16.5 7.50002 16.3 7.60002L13.2 10.4Z" fill="white"/>
<path d="M21.6 21.3C21.6 24.1 19.3 26.4 16.5 26.4C13.7 26.4 11.4 24.1 11.4 21.3C11.4 19.5 12.4 17.8 13.9 16.9C13.9 16.9 14 16.9 14 16.8L14.1 16.9C14.1 16.9 14.1 16.9 14 16.9C12.4 17.8 11.5 19.4 11.5 21.2C11.5 23.2 12.8 25 14.5 25.7C14.6 25.7 14.7 25.8 14.9 25.8C15.1 25.9 15.4 25.9 15.6 26C15.7 26 15.8 26 15.9 26C16.1 26 16.2 26 16.4 26C16.5 26 16.5 26 16.6 26C16.8 26 17 26 17.2 25.9C17.3 25.9 17.4 25.9 17.5 25.8C17.7 25.8 17.8 25.7 18 25.7C18.1 25.7 18.3 25.6 18.4 25.5C20.1 24.7 21.3 23 21.3 21C21.3 19.2 20.4 17.6 18.8 16.7C18.8 16.7 18.7 16.7 18.7 16.6L18.8 16.5C18.8 16.5 18.9 16.5 18.9 16.6C20.7 17.8 21.6 19.5 21.6 21.3Z" fill="white"/>
<path d="M16.6 27.1C13.4 27.1 10.8 24.5 10.8 21.3C10.8 19.2 11.9 17.3 13.6 16.3L13.7 16.5C12 17.5 10.9 19.4 10.9 21.3C10.9 24.4 13.4 26.9 16.5 26.9C19.6 26.9 22.1 24.4 22.1 21.3C22.1 19.3 21.1 17.5 19.4 16.5L19.5 16.3C21.3 17.3 22.3 19.2 22.3 21.3C22.4 24.5 19.8 27.1 16.6 27.1Z" fill="white"/>
<path d="M14.7 13.7L14.5 13.5V14C14.5 14.1 14.5 14.1 14.6 14.2L14.8 14.4V13.9C14.8 13.8 14.7 13.7 14.7 13.7ZM14.7 14.2L14.5 14.1V13.7L14.7 13.8V14.2Z" fill="white"/>
<path d="M15.1 13.9L14.9 13.7V14.2C14.9 14.3 14.9 14.3 15 14.3L15.2 14.5V14C15.2 14 15.2 14 15.1 13.9ZM15.1 14.5L14.9 14.4V14L15.1 14.1V14.5Z" fill="white"/>
<path d="M14.7 14.4999L14.5 14.2999V14.7999C14.5 14.8999 14.5 14.8999 14.6 14.8999L14.8 15.0999V14.5999C14.8 14.5999 14.7 14.5999 14.7 14.4999ZM14.7 14.9999L14.5 14.8999V14.4999L14.7 14.5999V14.9999Z" fill="white"/>
<path d="M15.1 14.8L14.9 14.6V15.1C14.9 15.2 14.9 15.2 15 15.2L15.2 15.4V14.9C15.2 14.9 15.2 14.8 15.1 14.8ZM15.1 15.3L14.9 15.2V14.8L15.1 14.9V15.3Z" fill="white"/>
<path d="M18.7 13.5L18.5 13.7L18.4 13.8V14.3L18.6 14.1L18.7 14V13.5ZM18.6 14.1L18.4 14.2V13.8L18.6 13.7V14.1Z" fill="white"/>
<path d="M18.3 13.7999L18 13.9999L17.9 14.0999V14.5999L18.1 14.3999L18.2 14.2999L18.3 13.7999ZM18.2 14.2999L18 14.4999V13.9999L18.2 13.8999V14.2999Z" fill="white"/>
<path d="M18.7 14.4L18.5 14.6L18.4 14.7V15.2L18.6 15L18.7 14.9V14.4ZM18.6 14.9L18.5 15V14.6L18.7 14.5V14.9H18.6Z" fill="white"/>
<path d="M18.3 14.6L18 14.8C17.9 14.8 17.9 14.9 17.9 15V15.5L18.1 15.3C18.2 15.3 18.2 15.2 18.2 15.1L18.3 14.6ZM18.2 15.2L18 15.3V14.9L18.2 14.8V15.2Z" fill="white"/>
<path d="M16.3 14H15.7C15.6 14 15.6 14 15.6 14.1V14.3C15.6 14.4 15.6 14.4 15.7 14.4H16.3C16.4 14.4 16.4 14.4 16.4 14.3V14.1C16.4 14 16.3 14 16.3 14ZM15.9 14.3H15.7V14.2H15.9V14.3ZM16.3 14.3H16V14.2H16.2V14.3H16.3Z" fill="white"/>
<path d="M17.4 14H16.8C16.7 14 16.7 14 16.7 14.1V14.3C16.7 14.4 16.7 14.4 16.8 14.4H17.4C17.5 14.4 17.5 14.4 17.5 14.3V14.1C17.5 14 17.5 14 17.4 14ZM17.1 14.3H16.9V14.2H17.1V14.3ZM17.4 14.3H17.2V14.2H17.4V14.3Z" fill="white"/>
<path d="M19 12.1V10.7L19.2 10.6C19.2 10.6 19.2 10.6 19.2 10.5V10.4L18.8 10.1H18.7L18.3 10.4C18.3 10.4 18.3 10.4 18.3 10.5V10.6L18.5 10.7V11.7L18 11.4V9.59998V9.49998L16.8 8.59998C16.8 8.59998 16.8 8.59998 16.7 8.59998L15.4 9.49998L15.3 9.59998V11.4L14.8 11.7V10.7L15 10.6C15 10.6 15 10.6 15 10.5V10.4L14.6 10.1H14.5L14.1 10.4C14.1 10.4 14.1 10.4 14.1 10.5V10.6L14.3 10.7V12.1L13.9 12.3V12.7L14.3 12.9V15.2L15.5 16H18.1L19.3 15.2V13L19.7 12.8V12.4L19 12.1ZM17.6 9.69998L17.3 9.89997H17.2L16.7 8.99998L17.5 9.59998C17.6 9.59998 17.6 9.69998 17.6 9.69998ZM17.8 9.89997V12.4L17.4 12.7H17.3V10.2L17.8 9.89997C17.8 9.79997 17.7 9.79997 17.8 9.89997ZM17 9.99998H16.2C16.1 9.99998 16.1 9.89997 16.1 9.89997L16.6 8.99998L17 9.89997C17.1 9.99997 17 9.99998 17 9.99998ZM17.2 10.2V12.7C17.2 12.7 17.2 12.8 17.1 12.8H16C16 12.8 15.9 12.8 15.9 12.7V10.2C15.9 10.2 15.9 10.1 16 10.1L17.2 10.2ZM16.4 8.99998L16 9.89997C16 9.89997 15.9 9.99997 15.9 9.89997L15.6 9.69998V9.59998L16.4 8.99998ZM15.4 9.79998L15.8 10.1V12.6C15.8 12.6 15.8 12.7 15.7 12.6L15.3 12.3L15.4 9.79998ZM14 10.5L14.3 10.3L14.7 10.6C14.7 10.6 14.7 10.6 14.7 10.7L14.3 10.9L14 10.5ZM14.2 10.8L14.4 10.9C14.4 10.9 14.4 10.9 14.5 10.9C14.5 10.9 14.5 10.9 14.6 10.9V12.5L14.7 12.6V10.9C14.7 11.3 14.7 12.2 14.7 12.7C14.7 12.8 14.7 12.8 14.7 12.8L14.2 12.5C14.2 12.1 14.2 11.2 14.2 10.8ZM15.3 15.9L14.3 15.2V13.1L15.3 13.7V15.9ZM16.9 16H16.3V14.9C16.3 14.9 16.3 14.8 16.4 14.8H16.8C16.9 14.8 16.9 14.8 16.9 14.9V16ZM17.7 16H17V14.8C17 14.7 16.9 14.7 16.9 14.7H16.3C16.2 14.7 16.2 14.8 16.2 14.8V16H15.5V13.8H17.7V16ZM15.3 13.1L14.7 12.8V12L15.2 11.7V12.5L15.8 12.9H17.2L17.8 12.5V11.7L18.3 12V12.8L17.7 13.1H15.3ZM18.8 15.2L17.8 15.9V13.7L18.8 13.1V15.2ZM18.5 12.7V12.6C18.5 12.4 18.5 12.1 18.5 11.7C18.5 11.4 18.5 11 18.5 10.8V12.5L18.6 12.4V10.8C18.6 10.8 18.6 10.8 18.7 10.8C18.7 10.8 18.7 10.8 18.8 10.8L19 10.7C19 11.1 19 12 19 12.3L18.5 12.7ZM18.7 10.8L18.3 10.5L18.7 10.2L19.1 10.5L18.7 10.8ZM18.7 10.3V10.7L18.4 10.5L18.7 10.3ZM14.4 10.7V10.3L14.7 10.5L14.4 10.7Z" fill="white"/>
<path d="M16.9 10.5H16.6V11.1C16.6 11.2 16.6 11.2 16.7 11.2H17V10.6C17 10.6 17 10.5 16.9 10.5ZM16.9 11.1H16.7V10.6H16.9V11.1Z" fill="white"/>
<path d="M16.4 11.6H16.1V12.2C16.1 12.3 16.1 12.3 16.2 12.3H16.5V11.7C16.5 11.6 16.4 11.6 16.4 11.6ZM16.4 12.2H16.2V11.7H16.4V12.2Z" fill="white"/>
<path d="M16.4 10.5H16.1V11.1C16.1 11.2 16.1 11.2 16.2 11.2H16.5V10.6L16.4 10.5ZM16.4 11.1H16.2V10.6H16.4V11.1Z" fill="white"/>
<path d="M16.9 11.6H16.7V12.2C16.7 12.3 16.8 12.4 16.8 12.4H17V11.8C17 11.6 17 11.6 16.9 11.6ZM16.9 12.2H16.7V11.7H16.9V12.2Z" fill="white"/>
<path d="M14.2 12.3L14.4 12.4V12L14.2 11.9V12.3Z" fill="white"/>
<path d="M14.2 11.5L14.4 11.6V11.3L14.2 11.2V11.5Z" fill="white"/>
<path d="M14.4 11.1L14.2 11V11.1L14.4 11.2V11.1Z" fill="white"/>
<path d="M18.7 12.4L18.9 12.3V11.9L18.7 12V12.4Z" fill="white"/>
<path d="M18.7 11.6L18.9 11.5V11.2L18.7 11.3V11.6Z" fill="white"/>
<path d="M18.7 11.2L18.9 11.1V11L18.7 11.1V11.2Z" fill="white"/>
<path d="M19.6 16.2L19.2 15.7C19.1 15.6 19 15.6 18.9 15.7L17.9 16.4C17.9 16.4 17.9 16.4 17.8 16.4H15.4H15.3L14.3 15.7C14.2 15.6 14.1 15.6 14 15.7L13.6 16.2C13.6 16.2 13.6 16.3 13.6 16.4C13.6 16.5 13.6 16.5 13.7 16.5L14.1 16.9L14.2 17L14.3 17.1C14.4 17.2 14.4 17.2 14.5 17.2H16H16.1H16.3H16.4H16.7H16.8H17H17.1H17.3H17.4H19C19.1 17.2 19.2 17.2 19.2 17.1L19.3 17L19.7 16.6L19.8 16.5C19.6 16.3 19.6 16.2 19.6 16.2ZM18.9 16.9H18.8H14.5H14.4L13.7 16.3V16.2L14.1 15.7C14.1 15.7 14.1 15.7 14.2 15.7L15.2 16.4C15.3 16.4 15.3 16.5 15.4 16.5H17.8C17.9 16.5 17.9 16.5 18 16.5L19 15.8H19.1L19.5 16.3V16.4L18.9 16.9Z" fill="white"/>
<path d="M1.70001 12.8L1.80001 12.4L1.50001 12.3L1.20001 13.5L1.50001 13.6L1.60001 13.2L2.60001 13.4L2.70001 13.1L1.70001 12.8Z" fill="white"/>
<path d="M2.60001 11.6L2.50001 11.8L2.40001 12.1L2.30001 12.3L2.50001 12.4V12.3L2.60001 11.9V11.8V11.6ZM2.20001 11.8H2.50001H2.70001H3.00001L3.10001 11.5H1.70001L1.60001 11.9L2.70001 12.7L2.80001 12.4L2.50001 12.2L2.30001 12.1L2.00001 11.9V11.8H2.20001Z" fill="white"/>
<path d="M2.80001 10.7001L3.60001 10.6001L3.80001 10.3001L2.60001 9.70007L2.50001 10.0001L3.10001 10.3001L3.30001 10.4001H3.10001L2.30001 10.5001L2.10001 10.8001L3.30001 11.3001L3.40001 11.0001L2.80001 10.7001Z" fill="white"/>
<path d="M3.30001 8.90002L3.50001 8.50002L3.30001 8.40002L2.70001 9.40002L3.00001 9.60003L3.20001 9.20002L4.10001 9.70002L4.30001 9.40002L3.30001 8.90002Z" fill="white"/>
<path d="M4.20002 7.09998L4.00002 7.39998L4.50002 8.09998L4.70002 8.29998L4.40002 8.19998L3.60002 7.89998L3.40002 8.19998L4.70002 8.59998L5.00002 8.19998L4.20002 7.09998Z" fill="white"/>
<path d="M5.70002 6.40007L6.20002 6.80007L6.40002 6.60007L5.40002 5.70007L5.10002 6.10007L5.50002 6.70007L5.70002 6.90007L5.30002 6.80007L4.70002 6.50007L4.40002 6.90007L5.40002 7.80007L5.60002 7.60007L5.10002 7.10007L4.80002 6.80007L5.80002 7.20007L6.00002 7.00007L5.40002 6.20007L5.70002 6.40007Z" fill="white"/>
<path d="M7.40001 5.00002C7.40001 4.90002 7.40001 4.90002 7.40001 4.80002C7.40001 4.70002 7.40001 4.70002 7.30001 4.60002C7.20001 4.50002 7.20001 4.50002 7.10001 4.40002C7.00001 4.40002 7.00001 4.40002 6.90001 4.40002C6.80001 4.40002 6.70001 4.50002 6.70001 4.50002L6.20001 5.00002L7.00001 6.00002L7.30001 5.80002L7.00001 5.40002L7.20001 5.20002C7.30001 5.20002 7.30001 5.10002 7.40001 5.00002ZM7.10001 4.90002C7.10001 5.00002 7.00001 5.00002 7.00001 5.10002L6.80001 5.20002L6.60001 4.90002L6.80001 4.80002C6.90001 4.80002 6.90001 4.70002 7.00001 4.70002C7.00001 4.70002 7.10001 4.70002 7.10001 4.80002C7.10001 4.90002 7.10001 4.90002 7.10001 4.90002Z" fill="white"/>
<path d="M8.80002 4.19999C8.80002 4.09999 8.70002 3.99999 8.70002 3.89999C8.60002 3.79999 8.50002 3.69999 8.40002 3.59999C8.30002 3.59999 8.20002 3.49999 8.10002 3.59999C8.00002 3.59999 7.90002 3.59999 7.80002 3.69999C7.70002 3.79999 7.60002 3.79999 7.50002 3.89999C7.50002 3.99999 7.40002 4.09999 7.40002 4.19999C7.40002 4.29999 7.50002 4.39999 7.50002 4.49999C7.60002 4.59999 7.70002 4.69999 7.80002 4.79999C8.00002 4.89999 8.10002 4.89999 8.20002 4.89999C8.30002 4.89999 8.40002 4.79999 8.50002 4.79999C8.60002 4.69999 8.70002 4.59999 8.70002 4.49999C8.80002 4.39999 8.80002 4.29999 8.80002 4.19999ZM8.50002 4.39999L8.40002 4.49999C8.30002 4.49999 8.30002 4.59999 8.20002 4.59999C8.10002 4.59999 8.10002 4.59999 8.00002 4.49999C8.00002 4.49999 8.00002 4.49999 7.90002 4.39999C7.90002 4.29999 7.80002 4.29999 7.80002 4.19999C7.80002 4.09999 7.80002 4.09999 7.80002 3.99999L7.90002 3.89999C8.00002 3.89999 8.00002 3.89999 8.10002 3.89999C8.20002 3.89999 8.20002 3.89999 8.30002 3.99999C8.40002 3.99999 8.40002 4.09999 8.50002 4.19999C8.60002 4.29999 8.60002 4.29999 8.60002 4.39999C8.50002 4.29999 8.50002 4.39999 8.50002 4.39999Z" fill="white"/>
<path d="M10 3.40007C10 3.30007 9.90001 3.30007 9.80001 3.20007C9.70001 3.20007 9.60001 3.20007 9.50001 3.20007L9.30001 3.40007C9.20001 3.40007 9.20001 3.40007 9.20001 3.40007H9.10001C9.10001 3.40007 9.10001 3.40007 9.10001 3.30007C9.10001 3.30007 9.10001 3.30007 9.10001 3.20007C9.10001 3.20007 9.20001 3.20007 9.20001 3.10007C9.30001 3.10007 9.30001 3.00007 9.40001 3.00007C9.50001 3.00007 9.50001 3.00007 9.60001 3.00007V2.70007C9.50001 2.70007 9.40001 2.70007 9.30001 2.70007C9.20001 2.70007 9.10001 2.70007 9.00001 2.80007C9.00001 2.90007 8.90001 3.00007 8.80001 3.10007C8.80001 3.20007 8.70001 3.20007 8.70001 3.30007C8.70001 3.40007 8.70001 3.50007 8.70001 3.50007C8.70001 3.60007 8.80001 3.60007 8.80001 3.60007C8.90001 3.60007 8.90001 3.60007 9.00001 3.60007C9.10001 3.60007 9.10001 3.60007 9.20001 3.60007L9.40001 3.50007C9.50001 3.50007 9.50001 3.50007 9.50001 3.50007C9.50001 3.50007 9.50001 3.50007 9.60001 3.50007C9.60001 3.50007 9.60001 3.50007 9.60001 3.60007C9.60001 3.60007 9.60001 3.60007 9.60001 3.70007C9.60001 3.70007 9.50001 3.70007 9.50001 3.80007C9.40001 3.80007 9.40001 3.80007 9.30001 3.90007C9.20001 3.90007 9.20001 3.90007 9.10001 3.90007C9.00001 3.90007 9.00001 3.90007 8.90001 3.90007V4.20007C9.00001 4.20007 9.00001 4.20007 9.10001 4.20007C9.20001 4.20007 9.20001 4.20007 9.30001 4.20007C9.40001 4.20007 9.50001 4.10007 9.50001 4.10007C9.80001 4.00007 9.90001 4.00007 9.90001 3.90007C10 3.80007 10 3.70007 10 3.70007C10.1 3.60007 10 3.50007 10 3.40007Z" fill="white"/>
<path d="M11.2 2.9C11.2 2.8 11.1 2.8 11 2.7C10.9 2.7 10.8 2.7 10.7 2.7H10.5C10.4 2.7 10.4 2.7 10.4 2.7H10.3C10.3 2.7 10.3 2.7 10.3 2.6C10.3 2.6 10.3 2.6 10.3 2.5C10.3 2.5 10.4 2.5 10.4 2.4C10.5 2.4 10.5 2.3 10.6 2.4C10.7 2.4 10.7 2.4 10.8 2.4L10.9 2.1C10.8 2.1 10.7 2 10.6 2C10.5 2 10.4 2 10.3 2.1C10.2 2.1 10.1 2.2 10 2.3C10 2.5 10 2.6 10 2.6C10 2.7 10 2.8 10 2.8C10 2.9 10.1 3 10.1 3C10.1 3 10.2 3 10.3 3.1C10.4 3.1 10.4 3.1 10.5 3.1H10.7C10.8 3.1 10.8 3.1 10.8 3.1C10.8 3.1 10.8 3.1 10.9 3.2C10.9 3.2 10.9 3.2 10.9 3.3C10.9 3.3 10.9 3.3 10.9 3.4C10.9 3.4 10.8 3.4 10.8 3.5C10.7 3.5 10.7 3.5 10.6 3.5C10.5 3.5 10.5 3.5 10.4 3.5C10.3 3.5 10.3 3.5 10.2 3.5L10.1 3.8C10.2 3.8 10.2 3.8 10.3 3.8C10.4 3.8 10.4 3.8 10.5 3.8C10.6 3.8 10.7 3.8 10.7 3.7C10.8 3.7 10.9 3.6 10.9 3.5C11 3.4 11 3.4 11 3.3C11.3 3 11.2 3 11.2 2.9Z" fill="white"/>
<path d="M12 1.69998V2.49998V2.79998L11.9 2.59998L11.4 1.89998L11 1.99998L11.9 3.09998L12.3 2.99998V1.59998L12 1.69998Z" fill="white"/>
<path d="M14.1 1.20007L13.6 1.30007L13.5 2.00007V2.30007L13.4 2.00007L13.1 1.40007L12.6 1.50007L12.9 2.80007L13.2 2.70007L13.1 2.10007L13 1.70007L13.5 2.60007L13.8 2.50007L13.9 1.50007L14 1.90007L14.1 2.50007L14.4 2.40007L14.1 1.20007Z" fill="white"/>
<path d="M15.4 1L15.2 1.8V2.1L15.1 1.9L14.8 1.1H14.4L15 2.4H15.4L15.7 1H15.4Z" fill="white"/>
<path d="M16.7 1.50002H16.5C16.4 1.50002 16.4 1.50002 16.4 1.50002C16.4 1.50002 16.4 1.50002 16.4 1.40002C16.4 1.40002 16.4 1.40002 16.4 1.30002C16.4 1.30002 16.4 1.30002 16.5 1.30002H16.6C16.7 1.30002 16.8 1.30002 16.8 1.30002C16.9 1.30002 16.9 1.40002 17 1.40002L17.2 1.20002C17 1.10002 16.9 1.00002 16.8 1.00002C16.7 1.00002 16.6 0.900024 16.5 0.900024C16.4 0.900024 16.3 0.900024 16.2 1.00002C16.1 1.00002 16.1 1.10002 16 1.20002C16 1.20002 16 1.30002 16 1.40002C16 1.50002 16 1.50002 16.1 1.60002L16.2 1.70002C16.3 1.70002 16.3 1.80002 16.4 1.80002L16.6 1.90002C16.7 1.90002 16.7 1.90002 16.7 1.90002C16.7 1.90002 16.7 1.90002 16.7 2.00002C16.7 2.00002 16.7 2.00002 16.7 2.10002C16.7 2.10002 16.7 2.10002 16.6 2.10002H16.5C16.4 2.10002 16.4 2.10002 16.3 2.10002C16.2 2.10002 16.2 2.10002 16.1 2.00002L16 1.90002L15.8 2.10002C15.8 2.10002 15.9 2.20002 16 2.20002C16.1 2.20002 16.1 2.30002 16.2 2.30002C16.3 2.30002 16.4 2.30002 16.5 2.30002C16.6 2.30002 16.7 2.30002 16.8 2.20002C16.9 2.20002 16.9 2.10002 17 2.10002C17 2.00002 17.1 2.00002 17.1 1.90002C17.1 1.80002 17.1 1.70002 17 1.70002C16.9 1.60002 16.8 1.50002 16.7 1.50002Z" fill="white"/>
<path d="M19.1 2.59998H19H18.9H18.8C18.8 2.59998 18.7 2.59998 18.7 2.49998C18.7 2.49998 18.7 2.49998 18.7 2.39998C18.7 2.39998 18.7 2.39998 18.7 2.29998C18.7 2.29998 18.7 2.29998 18.7 2.19998C18.7 2.19998 18.7 2.19998 18.7 2.09998H18.5V2.19998C18.5 2.19998 18.5 2.19998 18.5 2.29998C18.5 2.39998 18.5 2.49998 18.5 2.49998C18.5 2.59998 18.6 2.59998 18.6 2.59998C18.7 2.59998 18.7 2.69998 18.8 2.69998C18.9 2.69998 18.9 2.69998 19 2.69998C19.1 2.69998 19.1 2.69998 19.1 2.69998V2.59998ZM19.2 1.49998C19.2 1.39998 19.1 1.29998 19 1.19998C18.9 1.09998 18.8 1.09998 18.7 1.09998C18.6 1.09998 18.5 1.09998 18.3 1.09998C18.2 1.09998 18.1 1.19998 18 1.29998C18 1.39998 18 1.49998 18 1.69998C18 1.79998 18 1.99998 18 2.09998C18 2.19998 18.1 2.29998 18.2 2.39998C18.3 2.39998 18.3 2.49998 18.4 2.49998H18.5H18.6C18.7 2.49998 18.8 2.49998 18.8 2.49998C18.9 2.49998 19 2.39998 19.1 2.29998C19.2 2.19998 19.2 2.09998 19.2 1.89998C19.2 1.69998 19.2 1.59998 19.2 1.49998ZM18.9 1.79998C18.9 1.89998 18.9 1.99998 18.8 1.99998C18.8 2.09998 18.7 2.09998 18.7 2.09998C18.7 2.09998 18.6 2.09998 18.5 2.09998C18.4 2.09998 18.4 2.09998 18.3 1.99998L18.2 1.89998C18.2 1.79998 18.2 1.79998 18.2 1.69998C18.2 1.59998 18.2 1.49998 18.3 1.49998C18.3 1.39998 18.4 1.39998 18.4 1.39998C18.4 1.39998 18.5 1.39998 18.6 1.39998C18.7 1.39998 18.7 1.39998 18.8 1.49998L18.9 1.59998C18.9 1.59998 18.9 1.69998 18.9 1.79998Z" fill="white"/>
<path d="M20.5 1.39998L20.1 2.09998L20 2.29998V1.99998L19.9 1.19998L19.6 1.09998L19.8 2.49998L20.2 2.59998L20.9 1.39998H20.5Z" fill="white"/>
<path d="M21.4 2.49998L21.1 2.39998L20.9 2.29998L20.8 2.49998H20.9L21.3 2.59998H21.4L21.5 2.39998L21.4 2.49998ZM21.4 2.49998V2.69998V2.99998L21.7 3.09998V1.69998L21.3 1.59998L20.5 2.69998L20.8 2.79998L21 2.49998L21.1 2.29998L21.3 1.99998H21.4V2.19998V2.49998Z" fill="white"/>
<path d="M23.2 2.4L22.9 3L22.8 3.2V3L22.7 2.2L22.4 2L21.9 3.2L22.2 3.3L22.5 2.7L22.6 2.5V2.7L22.7 3.5L23 3.7L23.5 2.5L23.2 2.4Z" fill="white"/>
<path d="M23.7 2.70007L23.6 2.90007L24 3.10007L23.5 4.00007L23.8 4.20007L24.3 3.30007L24.7 3.50007L24.8 3.30007L23.7 2.70007Z" fill="white"/>
<path d="M25.8 3.90002L25.1 4.40002L24.9 4.60002L25 4.40002L25.3 3.60002L25 3.40002L24.6 4.70002L24.9 4.90002L26 4.10002L25.8 3.90002Z" fill="white"/>
<path d="M27.1 5.00002L26.5 5.40002L26.3 5.60002L26.4 5.30002L26.7 4.70002L26.3 4.40002L25.4 5.40002L25.6 5.60002L26 5.10002L26.3 4.80002L25.9 5.80002L26.1 6.00002L27 5.40002L26.7 5.70002L26.3 6.20002L26.5 6.40002L27.4 5.40002L27.1 5.00002Z" fill="white"/>
<path d="M28.7 6.80007C28.7 6.70007 28.6 6.60007 28.5 6.50007C28.4 6.40007 28.3 6.30007 28.3 6.30007C28.2 6.30007 28.1 6.20007 28.1 6.20007C28 6.20007 28 6.20007 27.9 6.30007C27.8 6.30007 27.8 6.40007 27.8 6.50007C27.8 6.60007 27.8 6.60007 27.8 6.70007C27.8 6.80007 27.8 6.80007 27.9 6.90007L28 7.10007C28 7.20007 28 7.20007 28 7.20007V7.30007C28 7.30007 28 7.30007 27.9 7.30007C27.9 7.30007 27.9 7.30007 27.8 7.30007C27.8 7.30007 27.7 7.30007 27.7 7.20007C27.7 7.20007 27.6 7.10007 27.6 7.00007C27.6 6.90007 27.6 6.90007 27.6 6.80007C27.6 6.70007 27.6 6.70007 27.6 6.60007H27.3C27.3 6.70007 27.3 6.70007 27.3 6.80007C27.3 6.90007 27.3 6.90007 27.4 7.00007C27.4 7.10007 27.5 7.10007 27.5 7.20007C27.6 7.30007 27.6 7.30007 27.7 7.40007C27.8 7.40007 27.9 7.50007 27.9 7.50007C28 7.50007 28.1 7.50007 28.1 7.40007C28.2 7.30007 28.2 7.30007 28.2 7.20007C28.2 7.10007 28.2 7.00007 28.1 6.90007L28 6.70007C28 6.60007 28 6.60007 28 6.60007V6.50007C28 6.50007 28 6.50007 28.1 6.50007C28.1 6.50007 28.1 6.50007 28.2 6.50007C28.2 6.50007 28.3 6.50007 28.3 6.60007C28.4 6.70007 28.4 6.70007 28.4 6.80007C28.4 6.90007 28.4 6.90007 28.4 7.00007H28.7C28.8 7.00007 28.7 6.90007 28.7 6.80007Z" fill="white"/>
<path d="M29.6 7.90001C29.6 7.80001 29.5 7.70001 29.5 7.70001C29.4 7.60001 29.3 7.50001 29.2 7.50001C29.1 7.50001 29 7.40001 28.9 7.50001C28.8 7.50001 28.7 7.60001 28.6 7.60001C28.5 7.70001 28.4 7.80001 28.3 7.90001C28.2 8.00001 28.2 8.10001 28.2 8.20001C28.2 8.30001 28.3 8.40001 28.3 8.50001C28.4 8.60001 28.4 8.60001 28.5 8.70001C28.6 8.70001 28.6 8.80001 28.7 8.80001C28.8 8.80001 28.9 8.80001 29 8.80001L28.9 8.50001C28.8 8.50001 28.8 8.50001 28.7 8.50001C28.6 8.50001 28.6 8.40001 28.6 8.40001C28.6 8.30001 28.5 8.30001 28.5 8.20001C28.5 8.10001 28.5 8.10001 28.6 8.00001C28.6 7.90001 28.7 7.90001 28.8 7.80001C28.9 7.70001 28.9 7.70001 29 7.70001C29.1 7.70001 29.1 7.70001 29.2 7.70001C29.3 7.70001 29.3 7.80001 29.3 7.80001C29.3 7.90001 29.4 7.90001 29.4 8.00001C29.4 8.10001 29.4 8.10001 29.3 8.20001L29.6 8.40001C29.7 8.30001 29.7 8.30001 29.7 8.20001C29.6 8.10001 29.6 8.00001 29.6 7.90001Z" fill="white"/>
<path d="M29.9 8.40002L28.8 9.10003L29 9.40002L30.1 8.70002L29.9 8.40002Z" fill="white"/>
<path d="M30.8 9.99998L30.1 10.1L29.8 10.2L30 9.99998L30.5 9.49998L30.3 9.09998L29.1 9.69998L29.2 9.99998L29.7 9.69998L30.1 9.49998L29.3 10.2L29.4 10.4L30.4 10.3L30 10.5L29.5 10.8L29.6 11.1L30.8 10.5V9.99998Z" fill="white"/>
<path d="M31.4 11.7001H30.6H30.3L30.5 11.5001L31.2 11.0001L31.1 10.7001L30 11.6001L30.1 12.0001H31.5L31.4 11.7001Z" fill="white"/>
<path d="M31.8 12.8C31.8 12.7 31.7 12.6 31.7 12.5C31.6 12.4 31.6 12.4 31.5 12.3C31.4 12.3 31.4 12.3 31.3 12.3C31.2 12.3 31.2 12.3 31.1 12.4C31.1 12.4 31 12.5 31 12.6C31 12.7 31 12.7 31 12.8V13C31 13.1 31 13.1 31 13.1C31 13.1 31 13.1 30.9 13.1C30.9 13.1 30.9 13.1 30.8 13.1C30.8 13.1 30.8 13.1 30.7 13V12.9C30.7 12.8 30.7 12.8 30.7 12.7C30.7 12.6 30.7 12.6 30.7 12.5C30.7 12.4 30.7 12.4 30.8 12.4L30.5 12.3C30.5 12.4 30.4 12.4 30.4 12.5C30.4 12.6 30.4 12.6 30.4 12.7C30.4 12.8 30.4 12.9 30.4 12.9C30.4 13 30.5 13.1 30.5 13.2C30.6 13.3 30.6 13.3 30.7 13.4C30.8 13.4 30.9 13.4 30.9 13.4C31 13.4 31.1 13.3 31.1 13.3C31.1 13.2 31.2 13.1 31.2 13V12.8C31.2 12.7 31.2 12.7 31.2 12.7C31.2 12.7 31.2 12.7 31.3 12.6C31.3 12.6 31.3 12.6 31.4 12.6C31.4 12.6 31.4 12.6 31.5 12.7V12.8C31.5 12.9 31.5 13 31.5 13C31.5 13.1 31.5 13.1 31.4 13.2L31.7 13.3C31.8 13.2 31.8 13.1 31.8 13C31.8 13 31.8 12.9 31.8 12.8Z" fill="white"/>
<path d="M6.3 27.1L5.8 27.6C5.7 27.7 5.7 27.7 5.6 27.7C5.5 27.7 5.5 27.7 5.4 27.6C5.3 27.5 5.3 27.5 5.3 27.4C5.3 27.3 5.3 27.3 5.4 27.2L5.9 26.7L5.7 26.5L5.2 27C5.1 27.1 5 27.3 5 27.4C5 27.5 5.1 27.7 5.2 27.8C5.3 27.9 5.4 28 5.6 28C5.7 28 5.9 27.9 6 27.8L6.5 27.3L6.3 27.1Z" fill="white"/>
<path d="M7.29999 28.1L6.89999 28.6L6.79999 28.8V28.6L6.99999 27.7L6.69999 27.5L5.89999 28.4L6.09999 28.6L6.49999 28.1L6.69999 28V28.2L6.49999 29L6.79999 29.2L7.59999 28.3L7.29999 28.1Z" fill="white"/>
<path d="M7.80001 28.4L7.10001 29.4L7.40001 29.6L8.10001 28.6L7.80001 28.4Z" fill="white"/>
<path d="M8.99999 29.3L8.39999 29.8L8.19999 30L8.29999 29.8L8.49999 29L8.19999 28.8L7.89999 30L8.19999 30.2001L9.19999 29.4L8.99999 29.3Z" fill="white"/>
<path d="M10.2 30.2L10.3 30L9.39999 29.5L8.79999 30.6L9.69999 31.1L9.79999 30.9L9.19999 30.6L9.29999 30.4L9.79999 30.6L9.89999 30.4L9.39999 30.2L9.49999 30L10.2 30.2Z" fill="white"/>
<path d="M11 31.1V31H10.7V31.1L10.8 31.6L11.1 31.7L11 31.1ZM11.4 30.6C11.4 30.5 11.3 30.4 11.1 30.4L10.6 30.2L10 31.2L10.3 31.2999L10.5 30.9L10.7 31C10.8 31 10.8 31.1 10.9 31.1C11 31.1 11 31.1 11 31.1C11.1 31.1 11.2 31 11.2 30.9C11.4 30.7 11.4 30.6 11.4 30.6ZM11.1 30.7C11 30.8 11 30.8 11.1 30.7C11 30.8 10.9 30.7999 10.9 30.7999L10.7 30.7L10.8 30.4L11 30.5C11.1 30.5 11.1 30.6 11.1 30.6C11.1 30.7 11.1 30.7 11.1 30.7Z" fill="white"/>
<path d="M12.2 31.2999L12 31.2L11.9 31.1V31C11.9 31 11.9 31 11.9 30.9C11.9 30.9 11.9 30.9 12 30.9H12.1C12.2 30.9 12.2 31 12.3 31C12.4 31 12.4 31.1 12.4 31.2L12.6 31C12.6 30.9 12.5 30.7999 12.4 30.7999C12.3 30.6999 12.2 30.7 12.1 30.7C12 30.7 11.9 30.7 11.8 30.7C11.7 30.7 11.6 30.6999 11.6 30.7999C11.5 30.7999 11.5 30.9 11.5 31C11.5 31.1 11.5 31.1 11.5 31.2C11.5 31.3 11.5 31.2999 11.6 31.2999C11.6 31.2999 11.7 31.4 11.8 31.4L12 31.5L12.1 31.6C12.1 31.6 12.1 31.6 12.1 31.7C12.1 31.7 12.1 31.6999 12.1 31.7999C12.1 31.7999 12.1 31.7999 12 31.7999H11.9C11.8 31.7999 11.8 31.8 11.7 31.7L11.6 31.6L11.5 31.5L11.3 31.7C11.3 31.8 11.4 31.8 11.4 31.9C11.4 32 11.5 32 11.6 32C11.7 32 11.7 32.0999 11.8 32.0999C11.9 32.0999 12 32.0999 12.1 32.0999C12.2 32.0999 12.3 32.1 12.3 32C12.4 32 12.4 31.8999 12.4 31.7999C12.4 31.6999 12.4 31.6 12.4 31.6C12.4 31.4 12.3 31.2999 12.2 31.2999Z" fill="white"/>
<path d="M13 31L12.7 32.2L13 32.3L13.3 31.1L13 31Z" fill="white"/>
<path d="M14.5 31.4C14.4 31.3 14.3 31.2 14.1 31.2L13.6 31.1L13.4 32.3L13.9 32.4C14.1 32.4 14.2 32.4 14.4 32.3C14.5 32.2 14.6 32.1 14.6 31.9C14.6 31.7 14.6 31.6 14.5 31.4ZM14.3 31.9C14.3 32 14.2 32.1 14.2 32.2C14.1 32.3 14.1 32.3 14 32.3H13.8L13.9 31.6H14.1C14.2 31.6 14.3 31.7 14.3 31.7C14.3 31.6 14.3 31.7 14.3 31.9Z" fill="white"/>
<path d="M15.5 32.1H15.2H15V32.3H15.1H15.5H15.6V32.1H15.5ZM15.6 31.4H15.2L14.7 32.6H15L15.1 32.3L15.2 32.1L15.3 31.8L15.4 31.6V31.8L15.5 32.1V32.3L15.6 32.6H15.9L15.6 31.4Z" fill="white"/>
<path d="M17.2 31.6C17.1 31.5 16.9 31.4 16.7 31.4H16.2V32.6H16.7C16.9 32.6 17 32.5 17.1 32.4C17.2 32.3 17.3 32.1 17.3 31.9C17.4 31.8 17.3 31.7 17.2 31.6ZM17 32.3C17 32.4 16.9 32.4 16.8 32.4H16.6V31.6H16.8C16.9 31.6 17 31.6 17 31.7C17 31.8 17.1 31.9 17.1 32C17 32.2 17 32.3 17 32.3Z" fill="white"/>
<path d="M19.4 31.8C19.4 31.6 19.3 31.5 19.2 31.4C19.1 31.3 18.9 31.3 18.7 31.3L18.2 31.4L18.4 32.6L18.9 32.5C19.1 32.5 19.2 32.4 19.3 32.3C19.4 32.2 19.4 32 19.4 31.8ZM19.1 32.2001C19.1 32.3001 19 32.3 18.9 32.3H18.7L18.6 31.6H18.8C18.9 31.6 19 31.6001 19 31.7001C19.1 31.8001 19.1 31.8 19.1 32C19.1 32 19.1 32.1001 19.1 32.2001Z" fill="white"/>
<path d="M20.8 31.9L20.1 32L20 31.8L20.5 31.7L20.4 31.5L20 31.6V31.3L20.6 31.2L20.5 31L19.6 31.2L19.9 32.4L20.9 32.2L20.8 31.9Z" fill="white"/>
<path d="M21.9 31.1L22.5 31.6L22.8 31.5L22.4 30.3L22.1 30.4L22.3 31L21.7 30.5L21.4 30.6L21.8 31.8L22.1 31.7001L21.9 31.1Z" fill="white"/>
<path d="M23.8 30.4L23.6 30.5L23.3 30.6L23.1 30.7001L23.2 30.9L23.3 30.8L23.7 30.6L23.8 30.5V30.4ZM23.3 29.8L23 30L23.2 31.3L23.5 31.2001V30.9V30.7001V30.4V30.2001L23.6 30.4L23.8 30.6L24 30.8L24.2 31L24.5 30.9L23.3 29.8Z" fill="white"/>
<path d="M24.9 29.8L24.8 29.7L24.6 29.9L24.7 30L25.2 30.3L25.5 30.1L24.9 29.8ZM25 29.3C24.9 29.2 24.9 29.1 24.7 29.1C24.6 29.1 24.5 29.1 24.3 29.2L23.8 29.5L24.4 30.6L24.7 30.4L24.5 30L24.7 29.9C24.8 29.9 24.8 29.8 24.9 29.8L25 29.7C25 29.5 25 29.4 25 29.3ZM24.4 29.9L24.2 29.6L24.4 29.5C24.5 29.5 24.5 29.5 24.5 29.5C24.5 29.5 24.6 29.5 24.6 29.6V29.7C24.6 29.7 24.6 29.8 24.5 29.8L24.4 29.9Z" fill="white"/>
<path d="M25.2 28.7L25 28.7999L25.7 29.7999L26 29.6L25.2 28.7Z" fill="white"/>
<path d="M26.2 28.7L26.9 29L27.2 28.8L26.4 27.8L26.2 28L26.6 28.5L26.8 28.7L26.6 28.6L25.9 28.3L25.6 28.5L26.4 29.5L26.6 29.3L26.2 28.7ZM26 27.7C26 27.7 26 27.6 25.9 27.5L25.8 27.6V27.7C25.8 27.7 25.8 27.7 25.8 27.8C25.8 27.8 25.8 27.8 25.7 27.8C25.7 27.8 25.7 27.8 25.6 27.8H25.5C25.4 27.8 25.4 27.9 25.4 28C25.4 28.1 25.4 28.1 25.5 28.2L25.6 28.1V28C25.6 28 25.6 28 25.6 27.9C25.6 27.9 25.6 27.9 25.7 27.9C25.7 27.9 25.7 27.9 25.8 27.9C25.8 27.9 25.8 27.9 25.9 27.9H26L26.1 27.8C26.1 27.8 26.1 27.8 26 27.7Z" fill="white"/>
<path d="M28.1 27.5C28.1 27.4 28 27.3 27.9 27.2C27.8 27.1 27.7 27 27.6 27C27.5 27 27.4 27 27.3 27C27.2 27 27.1 27.1 27 27.2C26.9 27.3 26.9 27.4 26.8 27.5C26.8 27.6 26.8 27.7 26.8 27.8C26.8 27.9 26.9 28 27 28.1C27.1 28.2 27.2 28.3 27.3 28.3C27.4 28.3 27.5 28.3 27.6 28.3C27.7 28.3 27.8 28.2 27.9 28.1C28 28 28 27.9 28.1 27.8C28.1 27.7 28.1 27.6 28.1 27.5ZM27.8 27.7C27.8 27.7 27.8 27.8 27.7 27.8L27.6 27.9C27.6 27.9 27.5 27.9 27.4 27.9C27.3 27.9 27.3 27.8 27.2 27.8C27.1 27.7 27.1 27.7 27.1 27.6C27.1 27.5 27.1 27.5 27.1 27.4C27.1 27.4 27.1 27.3 27.2 27.3L27.3 27.2C27.3 27.2 27.4 27.2 27.5 27.2C27.6 27.2 27.6 27.3 27.7 27.3C27.8 27.4 27.8 27.4 27.8 27.5C27.8 27.6 27.8 27.7 27.8 27.7Z" fill="white"/>
<path d="M17.2 17.3C17.2 17.4 17.2 17.5 17.2 17.6C17.2 17.8 17.3 18 17.3 18.2C17.3 18.4 17.4 18.6 17.4 18.8C17.4 19 17.4 19.2 17.3 19.4C17.3 19.5 17.3 19.6 17.3 19.7C17.3 19.8 17.4 19.9 17.4 20C17.5 20.2 17.5 20.4 17.5 20.6C17.5 20.8 17.5 21 17.5 21.2C17.5 21.4 17.5 21.6 17.6 21.8C17.7 22.2 17.8 22.6 17.9 23C18 23.2 18 23.6 18 24C18 24.6 18.1 25.3 18.1 25.9C18.2 25.9 18.5 25.8 18.5 25.8C18.3 25.3 18.2 24.6 18.2 23.9C18.2 23.5 18.1 23.2 18 22.8C17.9 22.4 17.8 22 17.6 21.6C17.5 21.4 17.5 21.2 17.5 21C17.5 20.8 17.5 20.6 17.5 20.4C17.5 20.2 17.5 20 17.4 19.8C17.3 19.6 17.3 19.4 17.3 19.2C17.3 19 17.4 18.8 17.4 18.6C17.4 18.4 17.3 18.2 17.3 18C17.3 17.8 17.2 17.6 17.2 17.4C17.3 17.4 17.2 17.3 17.2 17.3L17.3 17.1H17.2V17.2V17.3Z" fill="white"/>
<path d="M17.1 18.8C17.1 19 17.1 19.2 17 19.4C17 19.5 17 19.6 17 19.7C17 19.8 17.1 19.9 17.1 20C17.1 20.1 17.2 20.2 17.2 20.3C17.2 20.4 17.2 20.5 17.2 20.6C17.2 20.8 17.1 21 17.2 21.2C17.2 21.4 17.3 21.6 17.3 21.8C17.5 22.6 17.5 23.4 17.5 24.2C17.5 24.8 17.5 25.5 17.5 26.2C17.6 26.2 17.7 26.2 17.8 26.1C17.8 25.5 17.8 24.8 17.8 24.2C17.8 23.4 17.7 22.6 17.5 21.8C17.5 21.6 17.4 21.4 17.4 21.2C17.4 21 17.4 20.8 17.4 20.6C17.4 20.5 17.4 20.4 17.4 20.3C17.4 20.2 17.3 20.1 17.3 20C17.3 19.9 17.2 19.8 17.2 19.7C17.2 19.6 17.2 19.5 17.2 19.4C17.2 19.2 17.3 19 17.3 18.8C17.3 18.6 17.3 18.4 17.2 18.2L16.9 17H16.8L17 18.2C17 18.4 17.1 18.6 17.1 18.8Z" fill="white"/>
<path d="M16.6 18.2C16.6 18.2 16.6 18.3 16.6 18.4C16.6 18.5 16.6 18.5 16.6 18.6C16.6 18.7 16.6 18.8 16.7 18.9C16.7 19 16.7 19.1 16.7 19.2C16.7 19.3 16.6 19.4 16.6 19.5C16.6 19.7 16.6 19.9 16.7 20.1C16.7 20.3 16.8 20.5 16.8 20.7C16.8 20.9 16.8 21.1 16.7 21.3C16.7 21.5 16.6 21.7 16.7 21.9C16.7 22.1 16.8 22.3 16.8 22.5C16.8 22.7 16.9 22.9 16.9 23.1C16.9 23.5 16.9 23.9 16.9 24.3C16.8 25 16.7 25.6 16.7 26.3C16.7 26.3 16.7 26.3 16.8 26.3C16.9 26.3 16.9 26.3 17 26.3C17 25.6 17.1 25 17.2 24.3C17.2 23.9 17.2 23.5 17.2 23.1C17.2 22.9 17.2 22.7 17.1 22.5C17.1 22.3 17 22.1 17 21.9C17 21.7 17 21.5 17 21.3C17 21.1 17.1 20.9 17 20.7C17 20.5 17 20.3 16.9 20.1C16.8 19.9 16.8 19.7 16.8 19.5C16.8 19.4 16.8 19.3 16.9 19.2C16.9 19.1 16.9 19 16.9 18.9C16.9 18.8 16.9 18.7 16.8 18.6V18.5C16.6 18.3 16.7 18.3 16.6 18.2C16.7 18 16.7 17.8 16.7 17.6C16.7 17.4 16.6 17.2 16.6 17H16.5C16.6 17.4 16.7 17.8 16.6 18.2Z" fill="white"/>
<path d="M16 24.2C15.9 24.8 15.8 25.5 15.8 26.2C15.9 26.2 16 26.2 16.1 26.2C16.1 25.6 16.2 24.9 16.3 24.2C16.4 23.8 16.4 23.4 16.4 23C16.4 22.9 16.4 22.8 16.4 22.7C16.4 22.6 16.4 22.5 16.4 22.4C16.4 22.2 16.3 22 16.3 21.8C16.3 21.6 16.3 21.4 16.4 21.2C16.5 21 16.5 20.8 16.5 20.6C16.6 20.1 16.2 19.8 16.3 19.4C16.3 19.2 16.4 19 16.5 18.8C16.5 18.7 16.5 18.6 16.5 18.5C16.5 18.4 16.5 18.3 16.5 18.2C16.5 18.4 16.5 18.6 16.5 18.8C16.4 19 16.3 19.2 16.3 19.4C16.3 19.6 16.4 19.8 16.4 20C16.5 20.2 16.5 20.4 16.5 20.6C16.5 20.8 16.4 21 16.3 21.2C16 21.4 16 21.6 16 21.8C16 22 16.1 22.2 16.1 22.4C16.1 22.5 16.1 22.6 16.1 22.7C16.1 22.8 16.1 22.9 16.1 23C16.1 23.4 16.1 23.8 16 24.2Z" fill="white"/>
<path d="M16 17.3C16 17.4 16 17.5 16 17.6C16 17.7 16 17.8 16 17.9C16 18 16 18.1 15.9 18.2C15.9 18.3 15.8 18.4 15.9 18.5C15.9 18.6 15.9 18.7 15.9 18.8C15.9 18.9 15.9 19 15.9 19.1C15.9 19.2 15.8 19.3 15.8 19.4C15.7 19.7 15.9 20.1 15.9 20.5C15.9 20.9 15.7 21.3 15.7 21.6C15.7 22 15.7 22.4 15.8 22.7C15.8 23.1 15.9 23.5 15.8 23.9C15.7 24.3 15.5 24.7 15.4 25C15.3 25.2 15.3 25.3 15.2 25.5C15.2 25.6 15.2 25.7 15.2 25.8V25.9C15.1 25.9 15 25.8 14.8 25.8C14.8 25.7 14.8 25.6 14.9 25.5C15 25.3 15 25.1 15.1 24.9C15.3 24.5 15.5 24.2 15.6 23.9C15.7 23.5 15.7 23.2 15.6 22.8C15.6 22.4 15.5 22 15.6 21.6C15.6 21.2 15.8 20.8 15.9 20.5C15.9 20.3 15.9 20.1 15.9 19.9C15.9 19.7 15.8 19.5 15.9 19.3C15.9 19.2 16 19.1 16 19C16 18.9 16 18.8 16 18.7C16 18.6 16 18.5 16 18.4C16 18.3 16 18.2 16.1 18.1C16.2 17.9 16.2 17.7 16.1 17.5C15.9 17.5 15.9 17.4 16 17.3C16 17.2 16 17.2 16 17.1C16 17.1 16 17.1 16 17H16.1V17.1C16 17.2 16 17.2 16 17.3Z" fill="white"/>
<path d="M14.7 23.3C14.7 23.2 14.7 23.2 14.7 23.3C14.7 23.2 14.8 23.2 14.7 23.2C14.6 23.2 14.6 23.2 14.7 23.2H14.6V23.1C14.6 23.1 14.6 23.1 14.6 23C14.6 23 14.6 23 14.6 22.9V22.8C14.6 22.8 14.6 22.8 14.5 22.8V22.7C14.5 22.7 14.5 22.7 14.4 22.7C14.3 22.8 14.4 22.6 14.3 22.7C14.3 22.7 14.4 22.5 14.3 22.6C14.3 22.6 14.2 22.5 14.2 22.6L14.1 22.5C14.1 22.5 14.1 22.5 14 22.5C14 22.4 14 22.4 13.9 22.4C13.9 22.4 13.9 22.4 13.9 22.5C13.9 22.5 13.9 22.5 13.9 22.4C13.9 22.4 13.9 22.4 13.8 22.4C13.8 22.3 13.8 22.4 13.7 22.4C13.7 22.4 13.6 22.5 13.6 22.4C13.6 22.3 13.5 22.4 13.5 22.4C13.5 22.4 13.5 22.4 13.4 22.4C13.4 22.3 13.3 22.4 13.3 22.4C13.2 22.3 13.3 22.4 13.3 22.5C13.3 22.6 13.2 22.4 13.2 22.5C13.2 22.5 13.2 22.5 13.1 22.5C13.1 22.6 13.1 22.5 13.1 22.6V22.7C13.1 22.8 13.1 22.6 13 22.7C13 22.7 13.1 22.8 13 22.8C12.9 22.8 13 22.8 13 22.9C13.1 23 13 22.9 13 23C13 23.1 12.9 23 12.9 23C12.9 23.1 13 23.1 12.9 23.1C13 23.2 12.8 23.1 12.9 23.2C13 23.2 12.9 23.2 12.9 23.3C12.9 23.4 13.1 23.2 13 23.3C12.9 23.3 12.9 23.3 13 23.3V23.4V23.5H12.9C12.9 23.5 13 23.5 12.9 23.6C12.9 23.7 13 23.6 13.1 23.7H13.2C13.2 23.7 13.3 23.7 13.3 23.6L13.9 23.7L14 23.9V24V24.1C14 24.1 14 24.2 13.9 24.2C13.8 24.2 14.2 24.2 14.3 24.2H14.2V24V23.9C14.2 23.9 14.3 23.8 14.4 23.8C14.5 23.8 14.6 23.7 14.6 23.6H14.8C14.8 23.7 14.8 23.6 14.9 23.6H15C15 23.6 15 23.6 15 23.5C15 23.5 15 23.5 15.1 23.5C15.2 23.5 15.1 23.5 15.1 23.4H15.2C15.2 23.4 15.2 23.4 15.3 23.4H15.4C14.6 23.4 14.6 23.4 14.7 23.3C14.8 23.4 14.6 23.4 14.7 23.3ZM13.4 23.7C13.4 23.7 13.3 23.8 13.2 23.7C13.2 23.7 13.1 23.7 13.1 23.6C13.3 23.7 13.3 23.7 13.4 23.7ZM13.7 23.7C13.7 23.7 13.6 23.7 13.6 23.8C13.6 23.7 13.6 23.7 13.7 23.6C13.7 23.6 13.8 23.6 13.8 23.5C13.8 23.5 13.9 23.5 14 23.5C13.9 23.6 13.8 23.7 13.7 23.7Z" fill="white"/>
<path d="M20.8 23.1001C20.8 23.0001 20.8 23.0001 20.8 23.1001C20.9 23.0001 20.8 23.0001 20.8 23.1001C20.8 23.0001 20.9 23.0001 20.9 23.0001C20.8 23.0001 20.8 23.0001 20.9 23.0001H20.8C20.8 23.0001 20.9 22.9001 20.8 22.9001V22.8001C20.8 22.8001 20.8 22.8001 20.8 22.7001V22.6001C20.8 22.7001 20.8 22.6001 20.7 22.6001C20.7 22.6001 20.7 22.6001 20.6 22.6001V22.5001C20.6 22.5001 20.6 22.5001 20.5 22.5001C20.4 22.6001 20.5 22.4001 20.4 22.5001C20.4 22.5001 20.5 22.3001 20.4 22.4001C20.4 22.4001 20.3 22.3001 20.3 22.4001L20 21.9001C20 21.9001 20 21.9001 19.9 21.9001C19.9 21.8001 19.9 21.8001 19.8 21.8001C19.8 21.8001 19.8 21.8001 19.8 21.9001V21.8001C19.8 21.8001 19.8 21.8001 19.7 21.8001C19.7 21.7001 19.7 21.8001 19.6 21.8001C19.6 21.8001 19.5 21.9001 19.5 21.8001C19.5 21.7001 19.4 21.8001 19.4 21.8001C19.4 21.8001 19.4 21.8001 19.3 21.8001C19.3 21.7001 19.2 21.8001 19.2 21.8001C19.1 21.7001 19.2 21.8001 19.2 21.9001C19.2 22.0001 19.1 21.8001 19.1 21.9001C19.1 21.9001 19.1 21.9001 19 21.9001C19 22.0001 19 21.9001 19 22.0001C19 22.0001 19 22.0001 18.9 22.0001V22.1001C18.9 22.2001 18.9 22.0001 18.8 22.1001C18.8 22.1001 18.9 22.2001 18.8 22.2001C18.7 22.2001 18.8 22.2001 18.8 22.3001C18.9 22.4001 18.8 22.3001 18.8 22.4001C18.8 22.5001 18.7 22.4001 18.7 22.4001C18.7 22.5001 18.8 22.5001 18.7 22.5001C18.8 22.6001 18.6 22.5001 18.7 22.6001C18.8 22.6001 18.7 22.6001 18.7 22.7001C18.7 22.8001 18.9 22.6001 18.9 22.7001C18.8 22.7001 18.8 22.7001 18.9 22.7001V22.8001V22.9001C18.9 22.9001 18.8 22.8001 18.8 22.9001C18.8 22.9001 18.9 22.9001 18.8 23.0001C18.8 23.1001 18.9 23.0001 19 23.1001H19.1L19.2 23.0001C19.2 23.0001 19.8 23.1001 19.9 23.1001L20 23.3001V23.4001V23.5001C20 23.5001 20 23.6001 19.9 23.6001C19.8 23.6001 20.2 23.6001 20.3 23.6001H20.2L20.1 23.4001V23.3001V23.2001V23.1001C20.1 23.1001 20.2 23.0001 20.3 23.0001C20.4 23.0001 20.5 22.9001 20.5 22.8001H20.7C20.7 22.9001 20.7 22.8001 20.8 22.8001H20.9C20.9 22.8001 20.9 22.8001 20.9 22.7001C20.9 22.7001 20.9 22.7001 21 22.7001C21.1 22.7001 21 22.7001 21 22.6001H21.1C21.1 22.6001 21.1 22.6001 21.2 22.6001H21.3C20.8 23.2001 20.8 23.2001 20.8 23.1001ZM19.5 23.5001C19.5 23.5001 19.4 23.6001 19.3 23.5001C19.3 23.5001 19.2 23.5001 19.2 23.4001C19.4 23.5001 19.4 23.5001 19.5 23.5001ZM19.8 23.5001C19.8 23.5001 19.7 23.5001 19.7 23.6001C19.7 23.5001 19.7 23.5001 19.8 23.4001C19.8 23.4001 19.9 23.4001 19.9 23.3001C19.9 23.3001 20 23.3001 20.1 23.3001C20 23.4001 19.9 23.5001 19.8 23.5001Z" fill="white"/>
<path d="M13.9 20.3001C13.9 20.2001 13.9 20.2001 13.9 20.3001C13.9 20.2001 13.9 20.2001 13.9 20.2001V20.1001V20.0001C13.9 20.0001 13.9 19.9001 13.8 20.0001C13.8 20.0001 13.9 19.9001 13.8 19.9001C13.8 19.9001 13.8 19.8001 13.7 19.9001V19.8001C13.7 19.8001 13.7 19.8001 13.7 19.9001C13.7 19.9001 13.7 19.9001 13.7 19.8001C13.7 19.7001 13.7 19.8001 13.6 19.8001C13.6 19.9001 13.6 19.8001 13.6 19.9001C13.6 19.9001 13.6 19.9001 13.6 20.0001C13.6 20.0001 13.6 20.0001 13.6 20.1001C13.6 20.2001 13.6 20.1001 13.6 20.2001C13.6 20.2001 13.7 20.3001 13.6 20.3001C13.6 20.4001 13.6 20.3001 13.6 20.4001H13.7C13.7 20.4001 13.7 20.4001 13.7 20.5001C13.7 20.5001 13.7 20.5001 13.7 20.6001C13.7 20.6001 13.7 20.6001 13.6 20.6001H13.7C13.7 20.6001 13.7 20.6001 13.8 20.6001C13.8 20.6001 13.8 20.6001 13.9 20.6001L14.3 20.7001V20.8001V20.9001V21.0001C14.3 21.0001 14.3 21.1001 14.2 21.1001C14.2 21.1001 14.4 21.1001 14.5 21.1001H14.4V21.0001V20.9001C14.4 20.9001 14.4 20.9001 14.4 20.8001C14.4 20.8001 14.5 20.8001 14.5 20.7001L14.6 20.6001H14.7H14.8C13.8 20.4001 13.8 20.4001 13.9 20.3001C13.9 20.4001 13.9 20.4001 13.9 20.3001ZM13.1 20.6001H13C13 20.6001 12.9 20.6001 12.9 20.5001C13 20.6001 13 20.6001 13.1 20.6001C13.1 20.5001 13.1 20.5001 13.1 20.6001ZM13.3 20.6001C13.2 20.5001 13.2 20.5001 13.3 20.6001C13.3 20.5001 13.3 20.5001 13.3 20.5001H13.4C13.4 20.5001 13.3 20.5001 13.3 20.6001Z" fill="white"/>
<path d="M19.5 20.2C19.5 20.1 19.5 20.1 19.5 20.1V20V19.9C19.4 19.9 19.5 19.8 19.4 19.9C19.4 19.9 19.5 19.8 19.4 19.8C19.4 19.8 19.4 19.7 19.3 19.8V19.7C19.3 19.7 19.3 19.7 19.3 19.8C19.3 19.8 19.3 19.8 19.3 19.7C19.3 19.6 19.2 19.7 19.2 19.7C19.2 19.8 19.2 19.7 19.2 19.8C19.2 19.8 19.2 19.8 19.2 19.9C19.2 19.9 19.2 19.9 19.2 20C19.2 20 19.2 20 19.2 20.1C19.2 20.2 19.2 20.1 19.2 20.2C19.2 20.2 19.3 20.3 19.2 20.3C19.2 20.4 19.2 20.3 19.2 20.4C19.2 20.4 19.3 20.3 19.3 20.4C19.2 20.4 19.2 20.4 19.3 20.4C19.3 20.4 19.3 20.4 19.3 20.5V20.6C19.3 20.6 19.3 20.6 19.2 20.6H19.3C19.3 20.6 19.3 20.6 19.4 20.6C19.4 20.6 19.4 20.6 19.5 20.6L19.9 20.7V20.8V20.9V21C19.9 21 19.9 21.1 19.8 21.1C19.8 21.1 20 21.1 20.1 21.1H20V21V20.9C20 20.9 20 20.9 20 20.8L20.1 20.7L20.2 20.6H20.3H20.4C19.4 20.3 19.4 20.3 19.5 20.2C19.6 20.3 19.5 20.3 19.5 20.2C19.6 20.2 19.5 20.3 19.5 20.2ZM18.6 20.5H18.5C18.5 20.5 18.4 20.5 18.4 20.4C18.5 20.5 18.6 20.5 18.6 20.5ZM18.9 20.5C18.8 20.5 18.8 20.5 18.9 20.5C18.8 20.6 18.8 20.6 18.9 20.5C18.8 20.5 18.8 20.5 18.9 20.5C18.9 20.4 18.9 20.4 18.9 20.4H19L18.9 20.5Z" fill="white"/>
<path d="M15.5 19.1C15.5 19 15.5 19 15.5 19.1C15.5 19 15.5 19 15.5 19C15.5 19 15.5 19 15.5 18.9V18.8C15.5 18.8 15.5 18.8 15.4 18.8C15.4 18.8 15.5 18.8 15.4 18.9H15.5C15.5 18.9 15.5 18.9 15.5 19H15.6C15.6 19 15.6 19 15.7 19C15.7 19 16 19 16 19.1V19.2001V19.3V19.4C16 19.4 16 19.4 15.9 19.4C15.9 19.4 16 19.4 16.1 19.4C16.1 19.4 16.1 19.4 16 19.4V19.3C16 19.3 16 19.3001 16.1 19.2001L16.2 19.1H16.3H16.4C15.4 19.3 15.4 19.3 15.5 19.1C15.4 19.2 15.4 19.2 15.5 19.1C15.5 19.2 15.4 19.2 15.5 19.1C15.5 19.2 15.5 19.2 15.5 19.1ZM14.9 19.4C14.8 19.4 14.8 19.4 14.9 19.4ZM15 19.4C15 19.3 15 19.3 15 19.4C15 19.3 15.1 19.3 15.1 19.3C15.1 19.3 15 19.4 15 19.4Z" fill="white"/>
<path d="M14.8 17.9C14.8 17.8 14.8 17.8 14.8 17.9C14.8 17.8 14.8 17.8 14.8 17.8C14.8 17.8 14.8 17.8 14.8 17.7V17.6C14.8 17.6 14.8 17.6 14.7 17.6C14.7 17.6 14.8 17.6 14.7 17.7H14.8C14.8 17.7 14.8 17.7 14.8 17.8H14.9C14.9 17.8 14.9 17.8 15 17.8C15 17.8 15.3 17.8 15.3 17.9V18V18.1V18.2C15.3 18.2 15.3 18.2 15.2 18.2C15.2 18.2 15.3 18.2 15.4 18.2C15.4 18.2 15.4 18.2 15.3 18.2V18.1C15.3 18.1 15.3 18.1 15.4 18L15.5 17.9H15.6H15.7C14.8 18.1 14.7 18.1 14.8 17.9C14.7 18 14.7 18 14.8 17.9C14.8 18 14.7 18 14.8 17.9C14.9 18 14.8 18 14.8 17.9C14.9 17.9 14.8 18 14.8 17.9ZM14.2 18.2C14.1 18.2 14.1 18.2 14.2 18.2ZM14.3 18.2C14.3 18.1 14.3 18.1 14.3 18.2C14.3 18.1 14.4 18.1 14.4 18.1C14.4 18.1 14.3 18.2 14.3 18.2Z" fill="white"/>
<path d="M20.4 18.9C20.4 18.8 20.4 18.8 20.4 18.8V18.7V18.6V18.5C20.4 18.4 20.4 18.5 20.3 18.5C20.3 18.6 20.3 18.5 20.3 18.6C20.3 18.6 20.4 18.6 20.3 18.7H20.4C20.4 18.7 20.4 18.7 20.4 18.8H20.5C20.5 18.8 20.5 18.8 20.6 18.8C20.6 18.8 20.9 18.8 20.9 18.9V19V19.1V19.2C20.9 19.2 20.9 19.2 20.8 19.3C20.8 19.3 20.9 19.3 21 19.3H20.9V19.2C20.9 19.2 20.9 19.2 21 19.1L21.1 19H21.2H21.3C20.4 19.1 20.3 19 20.4 18.9C20.3 19 20.3 19 20.4 18.9C20.4 19 20.3 19 20.4 18.9C20.5 19 20.4 19 20.4 18.9ZM19.7 19.2C19.6 19.2 19.6 19.2 19.5 19.2C19.7 19.2 19.7 19.1 19.7 19.2C19.8 19.1 19.7 19.1 19.7 19.2ZM19.9 19.1C19.9 19 20 19 20 19C20 19.1 19.9 19.1 19.9 19.1Z" fill="white"/>
<path d="M19.1 17.9C19.1 17.8 19.1 17.8 19.1 17.8V17.7V17.6V17.5C19.1 17.4 19.1 17.5 19 17.5C19 17.6 19 17.5 19 17.6C19 17.6 19.1 17.6 19 17.7H19.1C19.1 17.7 19.1 17.7 19.1 17.8H19.2C19.2 17.8 19.2 17.8 19.3 17.8C19.3 17.8 19.6 17.8 19.6 17.9V18V18.1V18.2C19.6 18.2 19.6 18.2 19.5 18.3C19.5 18.3 19.6 18.3 19.7 18.3C19.7 18.3 19.7 18.3 19.6 18.3V18.2C19.6 18.2 19.6 18.2 19.7 18.1L19.8 18H19.9H20C19 18.1 19 18.1 19.1 17.9C19 18.1 19 18 19.1 17.9C19 18 19 18 19.1 17.9C19.1 18 19.1 18 19.1 17.9ZM18.4 18.2C18.3 18.2 18.3 18.2 18.2 18.2C18.3 18.2 18.4 18.2 18.4 18.2ZM18.6 18.2C18.5 18.2 18.5 18.1 18.6 18.2C18.6 18.1 18.6 18.1 18.6 18.2C18.6 18.1 18.7 18.1 18.7 18.1C18.7 18.1 18.6 18.2 18.6 18.2Z" fill="white"/>
<path d="M21 21C21 20.9 21 20.9 21 20.9V20.8V20.7C21 20.7 21 20.6 20.9 20.7C20.9 20.7 21 20.6 20.9 20.6C20.9 20.6 20.9 20.5 20.8 20.6V20.5C20.8 20.5 20.8 20.5 20.8 20.6C20.8 20.6 20.8 20.6 20.8 20.5C20.8 20.4 20.8 20.5 20.7 20.5C20.7 20.6 20.7 20.5 20.7 20.6C20.7 20.6 20.7 20.6 20.7 20.7C20.7 20.7 20.7 20.7 20.7 20.8C20.7 20.9 20.7 20.8 20.7 20.9C20.7 20.9 20.8 21 20.7 21C20.7 21.1 20.7 21 20.7 21.1C20.7 21.1 20.8 21 20.8 21.1C20.7 21.1 20.7 21.1 20.8 21.1C20.8 21.1 20.8 21.1 20.8 21.2C20.8 21.2 20.8 21.2 20.8 21.3C20.8 21.3 20.8 21.3 20.7 21.3H20.8C20.8 21.3 20.8 21.3 20.9 21.3C20.9 21.3 20.9 21.3 21 21.3L21.4 21.4V21.5V21.6V21.7C21.4 21.7 21.4 21.8 21.3 21.8C21.3 21.8 21.5 21.8 21.6 21.8H21.5V21.7V21.6C21.5 21.6 21.5 21.6 21.5 21.5L21.6 21.4L21.7 21.3H21.8H21.9C20.9 21.1 20.9 21.1 21 21C20.9 21.1 20.9 21.1 21 21C20.9 21 20.9 21 21 21ZM20.1 21.3H20C20 21.3 19.9 21.3 19.9 21.2C20 21.2 20.1 21.2 20.1 21.3C20.1 21.2 20.1 21.2 20.1 21.3ZM20.3 21.2C20.3 21.3 20.3 21.3 20.3 21.2C20.3 21.1 20.3 21.1 20.3 21.1H20.4C20.4 21.2 20.4 21.2 20.3 21.2Z" fill="white"/>
<path d="M15 21.3C15 21.2 15 21.2 15 21.2V21.1V21C15 21 15 20.9 14.9 21V20.9C14.9 20.9 14.9 20.8 14.8 20.9V20.8C14.8 20.8 14.8 20.8 14.8 20.7C14.8 20.6 14.8 20.7 14.7 20.7C14.7 20.8 14.7 20.7 14.7 20.8C14.7 20.8 14.7 20.8 14.7 20.9C14.7 21 14.7 20.9 14.7 21C14.7 21 14.8 21.1 14.7 21.1C14.7 21.2 14.7 21.1 14.7 21.2H14.8C14.8 21.2 14.8 21.2 14.8 21.3C14.8 21.3 14.8 21.3 14.8 21.4H14.9C14.9 21.4 14.9 21.4 15 21.4C15 21.4 15 21.4 15.1 21.4C15.1 21.4 15.2 21.4 15.3 21.4H15.4C15.4 21.4 15.4 21.4 15.5 21.4H15.6V21.5V21.6V21.7V21.8C15.6 21.8 15.6 21.9 15.5 21.9C15.5 21.9 15.7 21.9 15.8 21.9H15.7V21.8V21.7C15.7 21.7 15.7 21.7 15.7 21.6C15.7 21.6 15.8 21.6 15.8 21.5L15.9 21.4H16H16.1C14.9 21.4 14.9 21.4 15 21.3C15 21.5 14.9 21.4 15 21.3C14.9 21.4 14.9 21.4 15 21.3C15 21.4 14.9 21.4 15 21.3ZM14.4 21.6C14.3 21.6 14.3 21.6 14.4 21.6C14.4 21.5 14.3 21.5 14.4 21.6C14.5 21.5 14.5 21.5 14.5 21.5L14.4 21.6Z" fill="white"/>
<path d="M44.9 14.1C44.9 14.8 44.7 15.4 44.4 15.8C44 16.2 43.6 16.4 43 16.4C42.4 16.4 41.9 16.2 41.6 15.8C41.2 15.4 41.1 14.8 41.1 14.1V9.90002H40.1V14.1C40.1 15.1 40.4 15.8 40.9 16.4C41.4 17 42.1 17.3 43 17.3C43.9 17.3 44.6 17 45.1 16.4C45.6 15.8 45.9 15 45.9 14.1V9.90002H44.9V14.1Z" fill="white"/>
<path d="M49.7 12C49.4 12 49 12.1 48.8 12.2C48.6 12.3 48.4 12.5 48.3 12.7V12H47.4V17.1H48.3V13.4C48.4 13.2 48.6 13 48.8 12.9C49 12.8 49.2 12.7 49.5 12.7C49.9 12.7 50.2 12.8 50.4 13.1C50.6 13.3 50.7 13.7 50.7 14.1V17.2H51.6V13.9C51.6 13.3 51.4 12.9 51.1 12.5C50.7 12.1 50.3 12 49.7 12Z" fill="white"/>
<path d="M53.4 9.79993C53.2 9.79993 53.1 9.89993 53 9.99993C52.9 10.0999 52.8 10.2999 52.8 10.3999C52.8 10.5999 52.9 10.6999 53 10.7999C53.1 10.8999 53.3 10.9999 53.4 10.9999C53.6 10.9999 53.7 10.8999 53.8 10.7999C53.9 10.6999 54 10.4999 54 10.3999C54 10.1999 53.9 10.0999 53.8 9.99993C53.7 9.79993 53.6 9.79993 53.4 9.79993Z" fill="white"/>
<path d="M53.9 12H53V17.1H53.9V12Z" fill="white"/>
<path d="M57.2 15.9L55.6 12H54.7L56.7 17.1H57.6L59.7 12H58.7L57.2 15.9Z" fill="white"/>
<path d="M64.2 12.7C64 12.5 63.7 12.3 63.5 12.2C63.1 12 62.8 12 62.5 12C62.2 12 61.8 12.1 61.5 12.2C61.2 12.3 61 12.5 60.7 12.8C60.5 13 60.3 13.3 60.2 13.6C60.1 13.9 60 14.3 60 14.6C60 15 60.1 15.3 60.2 15.6C60.3 15.9 60.5 16.2 60.7 16.4C60.9 16.6 61.2 16.8 61.5 17C61.8 17.1 62.1 17.2 62.5 17.2C62.9 17.2 63.2 17.1 63.5 17C63.8 16.9 64.1 16.7 64.4 16.5L64.5 16.4L64 15.9L63.9 16C63.7 16.1 63.5 16.3 63.3 16.4C63.1 16.5 62.8 16.5 62.6 16.5C62.2 16.5 61.8 16.3 61.5 16C61.2 15.7 61 15.3 61 14.9H64.9V14.6C64.9 14.2 64.8 13.9 64.7 13.6C64.5 13.2 64.4 12.9 64.2 12.7ZM61 14.1C61.1 13.7 61.2 13.4 61.5 13.1C61.8 12.8 62.1 12.7 62.5 12.7C62.9 12.7 63.2 12.8 63.5 13.1C63.7 13.4 63.9 13.7 64 14.1H61Z" fill="white"/>
<path d="M68.5 12C68.4 12 68.3 12 68.2 12C67.9 12 67.6 12.1 67.3 12.3C67.1 12.4 67 12.6 66.9 12.8V12H66V17.1H66.9V13.7C67 13.4 67.2 13.2 67.4 13C67.6 12.8 67.9 12.8 68.1 12.8C68.2 12.8 68.3 12.8 68.3 12.8C68.4 12.8 68.5 12.8 68.5 12.9H68.6V12H68.5Z" fill="white"/>
<path d="M71.7 14.2L70.9 14C70.6 13.9 70.4 13.9 70.3 13.8C70.2 13.7 70.1 13.6 70.1 13.4C70.1 13.2 70.2 13 70.4 12.9C70.6 12.8 70.8 12.7 71.1 12.7C71.4 12.7 71.6 12.7 71.8 12.8C72 12.9 72.3 13 72.5 13.2L72.6 13.3L73.1 12.6H73C72.7 12.4 72.4 12.2 72.1 12.1C71.8 12 71.5 11.9 71.1 11.9C70.6 11.9 70.1 12 69.8 12.3C69.4 12.6 69.3 13 69.3 13.4C69.3 13.8 69.4 14.1 69.7 14.3C69.9 14.5 70.3 14.7 70.8 14.8L71.6 14.9C71.9 15 72.1 15 72.2 15.1C72.3 15.2 72.4 15.3 72.4 15.5C72.4 15.7 72.3 15.9 72.1 16.1C71.9 16.3 71.6 16.3 71.3 16.3C71 16.3 70.8 16.3 70.6 16.2C70.4 16.1 70.1 16 69.8 15.7L69.7 15.6L69.2 16.2L69.3 16.3C69.6 16.5 69.9 16.7 70.2 16.9C70.6 17 70.9 17.1 71.4 17.1C72 17.1 72.4 16.9 72.8 16.6C73.2 16.3 73.4 15.9 73.4 15.4C73.4 15 73.3 14.7 73 14.5C72.6 14.5 72.2 14.3 71.7 14.2Z" fill="white"/>
<path d="M74.7 9.79993C74.5 9.79993 74.4 9.89993 74.3 9.99993C74.2 10.0999 74.1 10.2999 74.1 10.3999C74.1 10.5999 74.2 10.6999 74.3 10.7999C74.4 10.8999 74.6 10.9999 74.7 10.9999C74.9 10.9999 75 10.8999 75.1 10.7999C75.2 10.6999 75.3 10.4999 75.3 10.3999C75.3 10.1999 75.2 10.0999 75.1 9.99993C75 9.79993 74.8 9.79993 74.7 9.79993Z" fill="white"/>
<path d="M75.1 12H74.2V17.1H75.1V12Z" fill="white"/>
<path d="M80.2 12.5C80 12.3 79.8 12.2 79.6 12.1C79.3 12 79 12 78.7 12C78.4 12 78 12.1 77.8 12.2C77.5 12.3 77.2 12.5 77 12.8C76.8 13 76.6 13.3 76.5 13.6C76.4 13.9 76.3 14.3 76.3 14.6C76.3 15 76.4 15.3 76.5 15.6C76.6 15.9 76.8 16.2 77 16.4C77.2 16.6 77.5 16.8 77.8 17C78.1 17.1 78.4 17.2 78.7 17.2C79 17.2 79.3 17.1 79.6 17C79.8 16.9 80 16.8 80.2 16.6V17.1H81.1V9.59998L80.2 9.79998V12.5ZM79.6 13C79.8 13.1 80 13.3 80.2 13.4V15.8C80.1 16 79.9 16.1 79.7 16.2C79.5 16.3 79.2 16.4 78.9 16.4C78.4 16.4 78 16.2 77.7 15.9C77.4 15.6 77.2 15.1 77.2 14.6C77.2 14.1 77.4 13.7 77.7 13.3C78 13 78.4 12.8 78.9 12.8C79.1 12.8 79.4 12.9 79.6 13Z" fill="white"/>
<path d="M84.5 12C84.2 12 83.9 12 83.6 12.1C83.3 12.2 83 12.3 82.6 12.5H82.5L82.9 13.2H83C83.3 13.1 83.5 12.9 83.8 12.9C84 12.8 84.3 12.8 84.5 12.8C84.9 12.8 85.2 12.9 85.4 13.1C85.6 13.3 85.7 13.6 85.7 13.9V14.4C85.5 14.3 85.3 14.2 85.1 14.2C84.8 14.1 84.6 14.1 84.3 14.1C83.7 14.1 83.3 14.2 82.9 14.5C82.5 14.8 82.4 15.2 82.4 15.6C82.4 16.1 82.6 16.5 82.9 16.8C83.2 17.1 83.7 17.2 84.2 17.2C84.5 17.2 84.8 17.1 85.1 17C85.3 16.9 85.5 16.8 85.7 16.6V17.1H86.6V13.7C86.6 13.1 86.4 12.7 86.1 12.3C85.6 12.1 85.1 12 84.5 12ZM83.1 15.6C83.1 15.4 83.2 15.2 83.4 15C83.6 14.8 83.9 14.8 84.3 14.8C84.6 14.8 84.8 14.8 85 14.9C85.2 15 85.4 15 85.6 15.1V16C85.4 16.2 85.2 16.3 85 16.4C84.8 16.5 84.5 16.5 84.3 16.5C84 16.5 83.7 16.4 83.5 16.3C83.2 16.1 83.1 15.9 83.1 15.6Z" fill="white"/>
<path d="M91.5 12.5C91.3 12.3 91.1 12.2 90.9 12.1C90.7 12 90.4 12 90.1 12C89.8 12 89.4 12.1 89.2 12.2C88.9 12.3 88.7 12.5 88.4 12.8C88.2 13 88 13.3 87.9 13.6C87.8 13.9 87.7 14.3 87.7 14.6C87.7 15 87.8 15.3 87.9 15.6C88 15.9 88.2 16.2 88.4 16.4C88.6 16.6 88.9 16.8 89.2 17C89.5 17.1 89.8 17.2 90.1 17.2C90.4 17.2 90.7 17.1 91 17C91.2 16.9 91.4 16.8 91.6 16.6V17.1H92.5V9.59998L91.6 9.79998V12.5H91.5ZM91 13C91.2 13.1 91.4 13.3 91.6 13.4V15.8C91.5 16 91.3 16.1 91.1 16.2C90.9 16.3 90.6 16.4 90.3 16.4C89.8 16.4 89.4 16.2 89.1 15.9C88.8 15.6 88.6 15.1 88.6 14.6C88.6 14.1 88.8 13.7 89.1 13.3C89.4 13 89.8 12.8 90.3 12.8C90.5 12.8 90.7 12.9 91 13Z" fill="white"/>
<path d="M98.6 13.4C98.5 13.3 98.3 13.2 98.2 13.1C97.7 12.9 97.2 12.9 96.7 13.1C96.5 13.2 96.3 13.4 96.1 13.5C95.9 13.7 95.8 13.9 95.7 14.2C95.6 14.5 95.6 14.7 95.6 15C95.6 15.3 95.6 15.6 95.7 15.8C95.8 16.1 95.9 16.3 96.1 16.5C96.3 16.7 96.5 16.8 96.7 16.9C96.9 17 97.2 17.1 97.5 17.1C97.8 17.1 98 17 98.2 16.9C98.4 16.8 98.5 16.7 98.6 16.6V17H99.4V10.9L98.6 11.1V13.4ZM98.2 13.8C98.4 13.9 98.5 14 98.6 14.1V16C98.5 16.1 98.3 16.3 98.2 16.3C98 16.4 97.8 16.4 97.6 16.4C97.2 16.4 96.9 16.3 96.7 16C96.5 15.7 96.3 15.4 96.3 15C96.3 14.6 96.4 14.3 96.7 14C96.9 13.7 97.2 13.6 97.6 13.6C97.8 13.7 98 13.7 98.2 13.8Z" fill="white"/>
<path d="M104.2 15C104.2 14.7 104.2 14.4 104.1 14.2C104 13.9 103.9 13.7 103.7 13.5C103.5 13.3 103.3 13.2 103.1 13.1C102.6 12.9 102 12.9 101.6 13.1C101.4 13.2 101.2 13.4 101 13.5C100.8 13.7 100.7 13.9 100.6 14.2C100.5 14.5 100.5 14.7 100.5 15C100.5 15.3 100.6 15.6 100.7 15.8C100.8 16.1 100.9 16.3 101.1 16.5C101.3 16.7 101.5 16.8 101.8 17C102.1 17.1 102.3 17.2 102.6 17.2C102.9 17.2 103.2 17.2 103.4 17.1C103.6 17 103.9 16.9 104.1 16.7L104.2 16.6L103.7 16.1L103.6 16.2C103.5 16.3 103.3 16.4 103.1 16.5C102.9 16.6 102.7 16.6 102.5 16.6C102.1 16.6 101.9 16.5 101.6 16.2C101.4 16 101.2 15.7 101.2 15.4H104.3V15H104.2ZM101.1 14.7C101.2 14.4 101.3 14.2 101.5 14C101.7 13.8 102 13.7 102.3 13.7C102.6 13.7 102.9 13.8 103.1 14C103.3 14.2 103.4 14.4 103.5 14.7H101.1Z" fill="white"/>
<path d="M107.3 10H108.9L112 14.3V10H113.6V17.1H112.1L108.9 12.7V17.1H107.3V10Z" fill="white"/>
<path d="M116.7 17.1C116.2 17.1 115.7 17 115.4 16.7C115.1 16.4 114.9 16 114.9 15.6C114.9 15.1 115.1 14.8 115.4 14.5C115.8 14.2 116.3 14.1 116.9 14.1C117.1 14.1 117.3 14.1 117.5 14.2C117.7 14.2 117.9 14.3 118.1 14.4V14C118.1 13.8 118 13.6 117.8 13.4C117.6 13.3 117.4 13.2 117 13.2C116.8 13.2 116.6 13.2 116.3 13.3C116.1 13.4 115.8 13.4 115.5 13.6L114.9 12.5C115.3 12.3 115.7 12.2 116.1 12.1C116.5 12 116.9 12 117.3 12C118 12 118.6 12.2 119 12.5C119.4 12.8 119.6 13.3 119.6 13.9V17.2H118V16.7C117.8 16.9 117.5 17 117.3 17.1C117.2 17.1 117 17.1 116.7 17.1ZM116.4 15.5C116.4 15.7 116.5 15.8 116.6 15.9C116.7 16 116.9 16 117.2 16C117.4 16 117.5 16 117.7 15.9C117.9 15.9 118 15.8 118.1 15.7V15C118 15 117.8 14.9 117.7 14.9C117.5 14.9 117.4 14.9 117.3 14.9C117 14.9 116.8 14.9 116.7 15C116.5 15.2 116.4 15.4 116.4 15.5Z" fill="white"/>
<path d="M121.1 17.1V11.9H122.7V13C122.9 12.6 123.1 12.2 123.3 12C123.5 11.8 123.8 11.7 124.1 11.7C124.2 11.7 124.3 11.7 124.4 11.7C124.5 11.7 124.6 11.7 124.7 11.8V13.2C124.6 13.2 124.5 13.1 124.3 13.1C124.2 13.1 124 13.1 123.9 13.1C123.7 13.1 123.4 13.2 123.2 13.3C123 13.4 122.8 13.6 122.7 13.8V17.1H121.1Z" fill="white"/>
<path d="M126.4 11C126.1 11 125.9 10.9 125.7 10.7C125.5 10.5 125.4 10.3 125.4 10.1C125.4 9.89995 125.5 9.59995 125.7 9.49995C125.9 9.29995 126.1 9.19995 126.3 9.19995C126.5 9.19995 126.8 9.29995 127 9.49995C127.2 9.69995 127.3 9.89995 127.3 10.1C127.3 10.3 127.2 10.6 127 10.7C126.9 10.9 126.7 11 126.4 11ZM127.2 11.8V17H125.6V11.8H127.2Z" fill="white"/>
<path d="M128.6 17.0999V11.8999H130.2V12.6999C130.4 12.3999 130.6 12.1999 130.9 11.9999C131.2 11.7999 131.5 11.7999 131.8 11.7999C132.3 11.7999 132.7 11.9999 133 12.2999C133.3 12.5999 133.5 13.0999 133.5 13.5999V17.0999H132V14.0999C132 13.7999 131.9 13.5999 131.8 13.3999C131.6 13.1999 131.4 13.0999 131.2 13.0999C131 13.0999 130.9 13.0999 130.7 13.1999C130.6 13.2999 130.4 13.3999 130.3 13.4999V17.0999H128.6ZM129.9 11.0999L129 10.8999C129.1 10.3999 129.3 10.0999 129.5 9.7999C129.7 9.5999 130 9.3999 130.3 9.3999C130.4 9.3999 130.6 9.3999 130.7 9.4999C130.8 9.5999 131 9.5999 131.1 9.6999C131.2 9.7999 131.4 9.7999 131.5 9.8999C131.6 9.9999 131.7 9.9999 131.8 9.9999C131.9 9.9999 132 9.9999 132 9.8999C132.1 9.7999 132.1 9.5999 132.2 9.3999L133.1 9.5999C133 10.0999 132.8 10.3999 132.6 10.6999C132.4 10.8999 132.1 11.0999 131.8 11.0999C131.7 11.0999 131.5 11.0999 131.4 10.9999C131.3 10.8999 131.1 10.8999 131 10.7999C130.9 10.6999 130.7 10.6999 130.6 10.5999C130.5 10.4999 130.4 10.4999 130.3 10.4999C130.2 10.4999 130.1 10.4999 130 10.5999C130 10.6999 129.9 10.7999 129.9 11.0999Z" fill="white"/>
<path d="M134.7 14.5C134.7 14.1 134.8 13.8 134.9 13.4C135 13.1 135.2 12.8 135.5 12.5C135.7 12.3 136 12.1 136.4 11.9C136.7 11.8 137.1 11.7 137.5 11.7C137.9 11.7 138.2 11.8 138.6 11.9C138.9 12 139.2 12.2 139.5 12.5C139.7 12.7 139.9 13 140.1 13.4C140.2 13.7 140.3 14.1 140.3 14.5C140.3 14.9 140.2 15.2 140.1 15.6C140 15.9 139.8 16.2 139.5 16.5C139.3 16.7 139 16.9 138.6 17.1C138.3 17.2 137.9 17.3 137.5 17.3C137.1 17.3 136.8 17.2 136.4 17.1C136.1 17 135.8 16.8 135.5 16.5C135.3 16.3 135.1 16 134.9 15.6C134.7 15.2 134.7 14.8 134.7 14.5ZM137.4 15.8C137.7 15.8 138 15.7 138.2 15.4C138.4 15.2 138.5 14.8 138.5 14.5C138.5 14.1 138.4 13.8 138.2 13.5C138 13.2 137.7 13.1 137.4 13.1C137.1 13.1 136.8 13.2 136.6 13.5C136.4 13.8 136.3 14.1 136.3 14.5C136.3 14.9 136.4 15.2 136.6 15.4C136.8 15.6 137.1 15.8 137.4 15.8Z" fill="white"/>
<path d="M40 24.3999V20.3999H42.9V20.9999H40.7V22.0999H42.2V22.6999H40.7V24.3999H40Z" fill="white"/>
<path d="M48.2 22.5999C48.2 22.8999 48.2 23.0999 48.1 23.2999C48 23.4999 47.9 23.6999 47.8 23.8999C47.7 24.0999 47.5 24.1999 47.3 24.2999C47.1 24.3999 46.9 24.3999 46.6 24.3999C46.1 24.3999 45.7 24.1999 45.4 23.8999C45.1 23.5999 44.9 23.1999 44.9 22.5999V20.2999H45.6V22.5999C45.6 22.9999 45.7 23.1999 45.9 23.3999C46.1 23.5999 46.3 23.6999 46.6 23.6999C46.9 23.6999 47.1 23.5999 47.3 23.3999C47.5 23.1999 47.6 22.8999 47.6 22.5999V20.2999H48.3V22.5999H48.2Z" fill="white"/>
<path d="M50.4 20.3999H51.1L53.2 23.2999V20.3999H53.8V24.3999H53.2L51.1 21.3999V24.3999H50.5V20.3999H50.4Z" fill="white"/>
<path d="M56.1 24.3999V20.3999H57.6C57.9 20.3999 58.2 20.4999 58.4 20.5999C58.6 20.6999 58.9 20.7999 59 20.9999C59.2 21.1999 59.3 21.3999 59.4 21.5999C59.5 21.7999 59.6 22.0999 59.6 22.3999C59.6 22.6999 59.5 22.8999 59.4 23.1999C59.3 23.3999 59.2 23.6999 59 23.7999C58.8 23.9999 58.6 24.0999 58.4 24.1999C58.2 24.2999 57.9 24.3999 57.6 24.3999H56.1ZM57.5 20.9999H56.7V23.7999H57.5C57.7 23.7999 57.8 23.7999 58 23.6999C58.2 23.5999 58.3 23.4999 58.4 23.3999C58.5 23.2999 58.6 23.0999 58.7 22.9999C58.8 22.7999 58.8 22.5999 58.8 22.3999C58.8 22.1999 58.8 21.9999 58.7 21.7999C58.6 21.5999 58.5 21.4999 58.4 21.3999C58.3 21.2999 58.2 21.1999 58 21.0999C57.9 20.9999 57.7 20.9999 57.5 20.9999Z" fill="white"/>
<path d="M61.1 24.3999L62.7 20.3999H63.5L65 24.3999H64.3L63.9 23.2999H62.3L61.9 24.3999H61.1ZM62.5 22.6999H63.7L63.1 20.9999L62.5 22.6999Z" fill="white"/>
<path d="M66.9 24.3999V20.3999H68.4C68.7 20.3999 69 20.4999 69.2 20.5999C69.4 20.6999 69.7 20.7999 69.8 20.9999C70 21.1999 70.1 21.3999 70.2 21.5999C70.3 21.7999 70.4 22.0999 70.4 22.3999C70.4 22.6999 70.3 22.8999 70.2 23.1999C70.1 23.3999 70 23.6999 69.8 23.7999C69.6 23.9999 69.4 24.0999 69.2 24.1999C69 24.2999 68.7 24.3999 68.4 24.3999H66.9ZM68.3 20.9999H67.5V23.7999H68.3C68.5 23.7999 68.6 23.7999 68.8 23.6999C69 23.5999 69.1 23.4999 69.2 23.3999C69.3 23.2999 69.4 23.0999 69.5 22.9999C69.6 22.7999 69.6 22.5999 69.6 22.3999C69.6 22.1999 69.6 21.9999 69.5 21.7999C69.4 21.5999 69.3 21.4999 69.2 21.3999C69.1 21.2999 69 21.1999 68.8 21.0999C68.7 20.9999 68.5 20.9999 68.3 20.9999Z" fill="white"/>
<path d="M71.9 24.3999L73.5 20.3999H74.3L75.8 24.3999H75.1L74.7 23.2999H73.1L72.7 24.3999H71.9ZM73.3 22.6999H74.5L73.9 20.9999L73.3 22.6999Z" fill="white"/>
<path d="M80.2 24.3999V20.3999H83.1V20.9999H80.9V22.0999H82.4V22.6999H80.9V23.7999H83.1V24.3999H80.2Z" fill="white"/>
<path d="M85.2 20.3999H85.9L88 23.2999V20.3999H88.6V24.3999H88L85.9 21.3999V24.3999H85.3V20.3999H85.2Z" fill="white"/>
<path d="M94.8 20.3999V24.3999H93.9V21.2999L93.1 21.5999V20.7999L94.2 20.2999H94.8V20.3999Z" fill="white"/>
<path d="M98 20.2999C98.3 20.2999 98.5 20.2999 98.7 20.3999C98.9 20.4999 99.1 20.5999 99.3 20.7999C99.5 20.9999 99.6 21.1999 99.7 21.3999C99.8 21.5999 99.8 21.8999 99.8 22.1999C99.8 22.4999 99.8 22.7999 99.7 23.0999C99.6 23.3999 99.5 23.5999 99.3 23.7999C99.1 23.9999 98.9 24.0999 98.7 24.1999C98.5 24.2999 98.2 24.3999 97.9 24.3999C97.7 24.3999 97.5 24.3999 97.2 24.2999C97 24.1999 96.8 24.0999 96.7 23.9999L97.2 23.3999C97.3 23.4999 97.4 23.5999 97.6 23.5999C97.7 23.5999 97.9 23.6999 98 23.6999C98.3 23.6999 98.6 23.5999 98.7 23.2999C98.9 23.0999 99 22.6999 99 22.2999C98.9 22.4999 98.7 22.5999 98.5 22.6999C98.3 22.7999 98.1 22.7999 97.9 22.7999C97.7 22.7999 97.5 22.7999 97.4 22.6999C97.2 22.5999 97.1 22.5999 97 22.4999C96.9 22.3999 96.8 22.2999 96.7 22.0999C96.6 21.8999 96.6 21.7999 96.6 21.5999C96.6 21.3999 96.6 21.1999 96.7 21.0999C96.8 20.8999 96.9 20.7999 97 20.6999C97.1 20.5999 97.3 20.4999 97.5 20.3999C97.6 20.2999 97.8 20.2999 98 20.2999ZM98 22.0999C98.2 22.0999 98.3 22.0999 98.5 21.9999C98.6 21.8999 98.8 21.8999 98.9 21.6999C98.8 21.4999 98.7 21.2999 98.6 21.1999C98.5 21.0999 98.3 20.9999 98.1 20.9999C97.9 20.9999 97.8 21.0999 97.6 21.1999C97.5 21.2999 97.4 21.3999 97.4 21.5999C97.4 21.7999 97.5 21.8999 97.6 21.9999C97.7 22.0999 97.9 22.0999 98 22.0999Z" fill="white"/>
<path d="M103.2 24.3999C102.9 24.3999 102.7 24.3999 102.5 24.2999C102.3 24.1999 102.1 24.0999 102 23.8999C101.8 23.6999 101.7 23.4999 101.7 23.1999C101.6 22.8999 101.6 22.6999 101.6 22.3999C101.6 22.0999 101.6 21.7999 101.7 21.5999C101.8 21.2999 101.9 21.0999 102.1 20.9999C102.3 20.7999 102.4 20.6999 102.6 20.5999C102.8 20.4999 103 20.4999 103.3 20.4999C103.6 20.4999 103.8 20.4999 104 20.5999C104.2 20.6999 104.4 20.7999 104.5 20.9999C104.7 21.1999 104.8 21.3999 104.9 21.5999C105 21.8999 105 22.0999 105 22.3999C105 22.6999 105 22.9999 104.9 23.1999C104.8 23.4999 104.7 23.6999 104.6 23.8999C104.4 24.0999 104.3 24.1999 104.1 24.2999C103.7 24.3999 103.5 24.3999 103.2 24.3999ZM103.2 23.5999C103.5 23.5999 103.7 23.4999 103.8 23.2999C104 23.0999 104 22.7999 104 22.3999C104 21.9999 103.9 21.6999 103.8 21.4999C103.6 21.2999 103.4 21.1999 103.2 21.1999C102.9 21.1999 102.7 21.2999 102.6 21.4999C102.4 21.6999 102.4 21.9999 102.4 22.3999C102.4 22.7999 102.5 23.0999 102.6 23.2999C102.8 23.4999 103 23.5999 103.2 23.5999Z" fill="white"/>
<path d="M109.7 20.3999V22.7999H110.2V23.4999H109.7V24.3999H108.8V23.4999H106.7V22.7999L108.7 20.3999H109.7ZM107.6 22.6999H108.8V21.1999L107.6 22.6999Z" fill="white"/>
</svg>
