<svg xmlns="http://www.w3.org/2000/svg" viewBox="0 0 23 23"><defs><style>.cls-1{fill:#3c8dbc;}</style></defs><title>Recurso 228</title><g id="Capa_2" data-name="Capa 2"><g id="Capa_1-2" data-name="Capa 1"><path class="cls-1" d="M11.5,0A11.5,11.5,0,1,0,23,11.5,11.5,11.5,0,0,0,11.5,0Zm5.7,17.71a1.4,1.4,0,0,1-1.4,1.4H7.2a1.4,1.4,0,0,1-1.4-1.4V5.29a1.4,1.4,0,0,1,1.4-1.4H13V6.72a1.4,1.4,0,0,0,1.41,1.4H17.2Zm0-10.48H14.37a.51.51,0,0,1-.51-.51V3.89h0A.44.44,0,0,1,14.2,4l2.87,2.87a.44.44,0,0,1,.13.31Z"/><path class="cls-1" d="M6.89,10.86h1.6a1.2,1.2,0,0,1,1.24,1.35,1.27,1.27,0,0,1-1.44,1.37H7.8v1.8H6.89Zm.91,2h.41c.36,0,.6-.21.6-.67s-.17-.7-.63-.7H7.8Z"/><path class="cls-1" d="M10.22,10.86h1.5c1.27,0,1.49.87,1.49,2.2,0,1.6-.34,2.32-1.55,2.32H10.22Zm.92,3.85h.4c.63,0,.76-.4.76-1.63,0-1-.08-1.55-.78-1.55h-.38Z"/><path class="cls-1" d="M13.82,10.86h2.52v.75H14.73v1.06h1.52v.75H14.73v2h-.91Z"/></g></g></svg>