<svg width="210" height="210" viewBox="0 0 210 210" fill="none" xmlns="http://www.w3.org/2000/svg">
<path d="M210 105C210 47.0101 162.99 -1.52588e-05 105 -1.52588e-05C47.0101 -1.52588e-05 0 47.0101 0 105C0 162.99 47.0101 210 105 210C162.99 210 210 162.99 210 105Z" fill="#00415B"/>
<path d="M144.523 95C150.53 95 155.219 99.8549 155.219 106.325C155.219 112.796 149.922 117 143.915 117C137.908 117 133.219 112.405 133.219 105.935C133.219 99.4644 138.516 95 144.523 95Z" fill="white"/>
<path d="M208 104.5C208 47.8908 162.109 2 105.5 2C48.8908 2 3 47.8908 3 104.5C3 161.109 48.8908 207 105.5 207C162.109 207 208 161.109 208 104.5Z" fill="#34D2DF"/>
<path d="M105 204C160.228 204 205 159.228 205 104C205 48.7715 160.228 4 105 4C49.7715 4 5 48.7715 5 104C5 159.228 49.7715 204 105 204Z" fill="white"/>
<path d="M43.941 41.9713C40.1464 43.9083 40.2924 41.6373 40.2194 106.359C40.2194 171.883 40.0734 169.412 44.2329 171.148C46.9329 172.284 141.505 172.284 144.205 171.148C146.613 170.147 148.219 167.408 148.219 164.269C148.219 162.399 147.927 161.931 146.759 161.931C145.592 161.931 145.3 162.399 145.3 164.269C145.3 165.738 144.716 167.141 143.84 167.942C142.381 169.278 141.432 169.278 94.2191 169.278C47.0058 169.278 46.0572 169.278 44.5977 167.942C43.1383 166.606 43.1383 165.738 43.1383 106.493C43.1383 47.2479 43.1383 46.3796 44.5977 45.0437C46.0572 43.7079 47.0058 43.7079 94.2191 43.7079C141.432 43.7079 142.381 43.7079 143.84 45.0437C144.716 45.8453 145.3 47.2479 145.3 48.7173C145.3 50.5875 145.592 51.0551 146.759 51.0551C147.927 51.0551 148.219 50.5875 148.219 48.7173C148.219 45.5781 146.613 42.8396 144.205 41.8377C141.286 40.6354 46.3491 40.769 43.941 41.9713Z" fill="#00415B"/>
<g filter="url(#filter0_d_46_155)">
<path d="M161.068 79.9162C158.747 81.0598 158.311 81.0598 155.99 80.1853C152.653 78.8399 151.928 78.9072 151.928 80.4543C151.928 81.3288 152.943 82.0688 155.337 82.876C158.674 84.0868 158.747 84.0868 161.576 82.6069L164.332 81.127L167.669 84.1541L170.933 87.1812L169.265 89.6701C167.669 92.0918 167.669 92.1591 168.975 95.5898C170.571 99.8277 170.933 100.164 174.27 101.039L176.954 101.778V106.084V110.389L174.27 111.129C170.933 112.003 170.571 112.34 168.975 116.578C167.669 120.008 167.669 120.076 169.265 122.497L170.933 124.986L167.597 128.013L164.332 131.108L161.648 129.628L159.037 128.08L155.047 129.359C150.477 130.839 150.042 131.175 149.389 134.404C149.026 136.153 149.244 137.027 150.042 137.633C150.985 138.373 151.202 138.104 151.855 135.816C152.508 133.597 153.161 132.991 155.627 132.117C158.384 131.108 158.747 131.108 161.14 132.318C164.26 133.866 165.203 133.597 169.483 129.762C173.545 126.13 173.908 124.986 172.167 121.959C170.933 119.806 170.933 119.47 172.022 116.914C172.965 114.627 173.69 114.021 175.939 113.483C179.421 112.609 180.219 111.263 180.219 106.084C180.219 100.904 179.421 99.5586 175.939 98.6841C173.69 98.146 172.965 97.5406 172.022 95.2534C170.933 92.6972 170.933 92.3609 172.239 90.141C173.908 87.2485 173.618 86.374 169.483 82.4051C165.565 78.6381 164.332 78.3017 161.068 79.9162Z" fill="#FC8D32"/>
</g>
<g clip-path="url(#clip0_46_155)">
<rect width="103" height="126" transform="translate(43.2188 43)" fill="black" fill-opacity="0.1"/>
<path d="M143.331 136.046V157.854L126.966 146.708L143.331 136.046Z" fill="white"/>
<path d="M143.331 147.677C119.544 147.677 100.976 129.603 100.976 105.515C100.976 81.4273 121.95 65.7769 145.737 65.7769C169.524 65.7769 188.093 82.8811 188.093 106.969C188.093 131.057 167.118 147.677 143.331 147.677Z" fill="white"/>
</g>
<path d="M57.2188 98.3607C57.2188 99.5173 57.7768 99.6534 62.6596 99.8575C67.5424 100.062 68.0307 100.198 68.24 101.49C68.3795 102.647 67.4727 103.395 63.5664 105.436C58.0558 108.226 57.0095 109.519 57.3583 113.192L57.5675 115.71L64.4035 115.914C70.8209 116.118 71.1697 116.05 71.1697 114.689C71.1697 113.465 70.7511 113.329 65.5893 113.329C60.2182 113.329 60.0089 113.26 60.0089 111.764C60.0089 110.539 60.9157 109.723 64.4035 107.954C71.3092 104.416 72.8438 101.49 69.5653 98.4968C68.1702 97.2041 67.1239 97 62.5898 97C57.707 97 57.2188 97.1361 57.2188 98.3607Z" fill="#00415B"/>
<path d="M57.2188 130.357C57.2188 131.511 57.7842 131.646 62.2368 131.85C66.124 131.986 67.4669 132.325 68.103 133.207C69.2338 134.971 67.8203 136.736 65.0639 137.007C61.9541 137.346 61.9541 139.654 65.0639 139.993C67.8203 140.264 69.2338 142.029 68.103 143.725C67.4669 144.675 66.124 145.014 62.2368 145.15C57.7842 145.354 57.2188 145.489 57.2188 146.643C57.2188 147.864 57.7135 148 62.5195 148C67.3255 148 68.103 147.796 69.6579 146.236C71.2127 144.811 71.4248 144.132 71.0714 142.029C70.7887 140.671 70.6473 139.043 70.6473 138.5C70.6473 137.957 70.7887 136.329 71.0714 134.971C71.4248 132.868 71.2127 132.189 69.6579 130.764C68.103 129.204 67.3255 129 62.5195 129C57.7135 129 57.2188 129.136 57.2188 130.357Z" fill="#00415B"/>
<path d="M60.3995 68.0613C57.405 70.5943 56.7745 71.5037 57.4838 72.0882C58.193 72.6728 58.981 72.413 60.7935 70.9841L63.1576 69.1005V76.0502C63.1576 82.6103 63.2364 83 64.7337 83C66.3097 83 66.3097 82.6752 66.1521 74.1017C65.9945 68.7757 65.6005 65.1385 65.1277 65.0086C64.6549 64.8787 62.5272 66.2426 60.3995 68.0613Z" fill="#00415B"/>
<path d="M145.47 89.9999C154.753 89.9999 162 97.2822 162 106.988C162 116.694 153.814 123 144.53 123C135.247 123 128 116.108 128 106.402C128 96.6964 136.186 89.9999 145.47 89.9999Z" fill="black" fill-opacity="0.15"/>
<path d="M144.53 96.7224C150.939 96.7224 155.941 101.244 155.941 107.27C155.941 113.295 150.29 117.211 143.882 117.211C137.474 117.211 132.471 112.932 132.471 106.906C132.471 100.88 138.122 96.7224 144.53 96.7224Z" fill="white"/>
<path d="M138.19 96.4718C128.603 100.954 128.603 113.13 138.19 117.545C142.257 119.485 145.743 119.485 149.81 117.545C159.397 113.13 159.397 100.954 149.81 96.4718C148.067 95.669 145.453 95 144 95C142.547 95 139.933 95.669 138.19 96.4718ZM149.156 99.2146C155.402 103.028 155.547 111.123 149.447 114.802C140.877 119.953 129.983 110.521 135.285 102.493C138.408 97.8098 144.581 96.338 149.156 99.2146Z" fill="#FC8D32"/>
<path d="M173.811 77.6708C173.528 78.0774 174.589 79.704 176.145 81.3984C179.751 85.3293 183.146 92.1067 184.419 97.7998C187.389 111.151 183.57 123.486 173.458 133.314C166.457 140.159 159.031 143.819 149.272 145.106L145.878 145.581V141.446C145.878 136.973 144.393 134.601 141.706 134.601C139.938 134.601 126.997 143.819 126.431 145.445C126.148 146.191 126.148 147.411 126.431 148.156C126.997 149.783 139.938 159 141.706 159C144.393 159 145.878 156.628 145.878 152.358V148.427L152.03 147.343C169.78 144.09 183.358 131.484 187.318 114.54C189.935 103.018 186.752 89.7346 179.044 80.3818C176.357 77.0608 174.73 76.2475 173.811 77.6708ZM142.696 146.801C142.696 152.629 142.413 155.95 141.918 156.086C141.069 156.357 128.906 147.749 128.906 146.801C128.906 145.852 141.069 137.244 141.918 137.516C142.413 137.651 142.696 140.972 142.696 146.801Z" fill="#00415B"/>
<g filter="url(#filter1_d_46_155)">
<path d="M136.582 76.1836C135.929 78.4035 135.277 79.0089 132.81 79.8834C130.054 80.8924 129.691 80.8924 127.37 79.7489C124.105 78.1344 122.872 78.4708 118.955 82.2378C114.82 86.2066 114.53 87.0811 116.198 89.9737C117.504 92.1935 117.504 92.5299 116.416 95.0861C115.473 97.3732 114.747 97.9786 112.499 98.5168C109.017 99.3913 108.219 100.737 108.219 105.916C108.219 111.096 109.017 112.441 112.499 113.316C114.747 113.854 115.473 114.459 116.416 116.747C117.504 119.303 117.504 119.639 116.198 121.859C114.53 124.752 114.82 125.626 118.955 129.595C122.872 133.362 124.105 133.698 127.37 132.084C129.691 130.94 130.126 130.94 132.447 131.815C135.784 133.16 136.51 133.093 136.51 131.546C136.51 130.671 135.494 129.931 133.1 129.124C129.763 127.913 129.691 127.913 126.862 129.393L124.105 130.873L120.768 127.846L117.504 124.819L119.172 122.33C120.768 119.908 120.768 119.841 119.463 116.41C117.867 112.172 117.504 111.836 114.167 110.961L111.483 110.222V105.916V101.611L114.167 100.871C117.504 99.9967 117.867 99.6604 119.463 95.4224C120.768 91.9917 120.768 91.9245 119.172 89.5028L117.504 87.0139L120.841 83.9868L124.105 80.8924L126.789 82.3723L129.401 83.9195L133.391 82.6414C137.961 81.1615 138.396 80.8252 139.049 77.5963C139.411 75.8473 139.194 74.9728 138.396 74.3674C137.453 73.6274 137.235 73.8965 136.582 76.1836Z" fill="#FC8D32"/>
</g>
<path d="M143.974 55.3388C142.913 56.343 142.559 57.5479 142.559 60.5603V64.443L136.407 65.514C118.657 68.7273 105.08 81.1785 101.119 97.914C98.5029 109.361 101.685 122.415 109.393 131.653C110.949 133.527 112.646 135 113.212 135C115.263 135 114.98 133.527 112.293 130.649C106.847 124.758 102.958 114.717 102.958 106.215C102.958 96.1066 107.06 86.9355 114.98 79.3711C122.052 72.6099 129.477 68.995 139.236 67.7231L142.559 67.2545V71.338C142.559 75.7562 144.045 78.0992 146.732 78.0992C148.5 78.0992 161.441 68.995 162.007 67.3884C162.289 66.6521 162.289 65.4471 162.007 64.7107C161.441 63.1041 148.5 54 146.732 54C146.025 54 144.752 54.6025 143.974 55.3388ZM153.379 61.0289C156.774 63.4388 159.532 65.7149 159.532 66.0496C159.532 66.9868 147.368 75.4884 146.52 75.2207C145.742 74.9529 145.035 59.2215 145.671 57.5479C146.237 56.1421 147.015 56.4769 153.379 61.0289Z" fill="#00415B"/>
<path d="M76.2188 138.5C76.2188 139.925 76.7146 140 93.2188 140C109.723 140 110.219 139.925 110.219 138.5C110.219 137.075 109.723 137 93.2188 137C76.7146 137 76.2188 137.075 76.2188 138.5Z" fill="#FC8D32"/>
<path d="M76.2188 73.5C76.2188 74.925 76.7146 75 93.2188 75C109.723 75 110.219 74.925 110.219 73.5C110.219 72.075 109.723 72 93.2188 72C76.7146 72 76.2188 72.075 76.2188 73.5Z" fill="#FC8D32"/>
<path d="M70 110.35C70 111.632 70.4991 111.7 79.9823 111.7C89.4655 111.7 89.9646 111.632 89.9646 110.35C89.9646 109.067 89.4655 109 79.9823 109C70.4991 109 70 109.067 70 110.35Z" fill="#FC8D32"/>
<path d="M139.059 90.4136C135.812 91.4092 133.059 93.0022 130.871 95.259C127.059 99.0425 126 101.565 126 107.074C126 112.583 127.059 115.106 130.871 118.889C134.612 122.672 138 124 144 124C150 124 153.388 122.672 157.129 118.889C160.941 115.106 162 112.583 162 107.074C162 103.49 161.576 101.432 160.659 99.7726C158.824 96.5202 155.435 93.2677 152.118 91.6747C149.082 90.2144 141.953 89.4843 139.059 90.4136ZM151.129 94.3298C162.988 100.105 161.788 116.234 149.224 120.748C139.129 124.332 127.906 116.433 128.612 106.278C129.176 98.5778 136.024 92.4712 144 92.4712C146.329 92.4712 148.518 93.0686 151.129 94.3298Z" fill="#FC8D32"/>
<defs>
<filter id="filter0_d_46_155" x="145.219" y="79" width="39" height="67" filterUnits="userSpaceOnUse" color-interpolation-filters="sRGB">
<feFlood flood-opacity="0" result="BackgroundImageFix"/>
<feColorMatrix in="SourceAlpha" type="matrix" values="0 0 0 0 0 0 0 0 0 0 0 0 0 0 0 0 0 0 127 0" result="hardAlpha"/>
<feOffset dy="4"/>
<feGaussianBlur stdDeviation="2"/>
<feComposite in2="hardAlpha" operator="out"/>
<feColorMatrix type="matrix" values="0 0 0 0 0 0 0 0 0 0 0 0 0 0 0 0 0 0 0.25 0"/>
<feBlend mode="normal" in2="BackgroundImageFix" result="effect1_dropShadow_46_155"/>
<feBlend mode="normal" in="SourceGraphic" in2="effect1_dropShadow_46_155" result="shape"/>
</filter>
<filter id="filter1_d_46_155" x="104.219" y="74" width="39" height="67" filterUnits="userSpaceOnUse" color-interpolation-filters="sRGB">
<feFlood flood-opacity="0" result="BackgroundImageFix"/>
<feColorMatrix in="SourceAlpha" type="matrix" values="0 0 0 0 0 0 0 0 0 0 0 0 0 0 0 0 0 0 127 0" result="hardAlpha"/>
<feOffset dy="4"/>
<feGaussianBlur stdDeviation="2"/>
<feComposite in2="hardAlpha" operator="out"/>
<feColorMatrix type="matrix" values="0 0 0 0 0 0 0 0 0 0 0 0 0 0 0 0 0 0 0.25 0"/>
<feBlend mode="normal" in2="BackgroundImageFix" result="effect1_dropShadow_46_155"/>
<feBlend mode="normal" in="SourceGraphic" in2="effect1_dropShadow_46_155" result="shape"/>
</filter>
<clipPath id="clip0_46_155">
<rect width="103" height="126" fill="white" transform="translate(43.2188 43)"/>
</clipPath>
</defs>
</svg>
