<svg xmlns="http://www.w3.org/2000/svg" viewBox="0 0 17.82 17.81"><defs><style>.cls-1{fill:#fff;}.cls-2{fill:#d19a00;}</style></defs><title>home</title><g id="Capa_2" data-name="Capa 2"><g id="Capa_1-2" data-name="Capa 1"><path class="cls-1" d="M8.91,0a8.91,8.91,0,1,0,8.91,8.91A8.91,8.91,0,0,0,8.91,0Z"/><path class="cls-2" d="M14.9,8.07,9.68,3.52a1.05,1.05,0,0,0-1.53,0L6.9,4.62,3,8c-.34.29-.43.58-.3.87a.74.74,0,0,0,.79.41A1.51,1.51,0,0,0,4,9a4.56,4.56,0,0,0,.51-.41c0,.23,0,.38,0,.54,0,1.41,0,2.82,0,4.23a1.07,1.07,0,0,0,.94,1.18c.71.07,1.43,0,2.19,0V11.67a3.29,3.29,0,0,1,0-.54.73.73,0,0,1,.7-.65,2.77,2.77,0,0,1,.41,0c1.06,0,1.28.22,1.28,1.29v2.85h1.92a1.24,1.24,0,0,0,1.28-1.31c0-1.41,0-2.82,0-4.24,0-.11,0-.22,0-.39a4.32,4.32,0,0,0,.39.33,2,2,0,0,0,.43.24.75.75,0,0,0,.89-.35A.64.64,0,0,0,14.9,8.07Z"/></g></g></svg>