<svg xmlns="http://www.w3.org/2000/svg" viewBox="0 0 20.62 20.62"><defs><style>.cls-1{fill:#1fa087;}.cls-2{fill:#fff;}</style></defs><title>editar_1</title><g id="Capa_2" data-name="Capa 2"><g id="Capa_1-2" data-name="Capa 1"><circle class="cls-1" cx="10.31" cy="10.31" r="10.31"/><path class="cls-2" d="M6.13,16.22c-.15,0-.31-.07-.45-.12A1.91,1.91,0,0,1,4.4,14.32V6.67A1.9,1.9,0,0,1,6.32,4.78c2,0,4,0,6,0h.09l-.1.09-.94,1a.24.24,0,0,1-.21.09H6.73a1.13,1.13,0,0,0-1.14.83,1.2,1.2,0,0,0,0,.38v6.72a1.23,1.23,0,0,0,.2.72,1.15,1.15,0,0,0,1,.51h6.71a1.15,1.15,0,0,0,1-.47A1,1,0,0,0,14.7,14V9.44a.19.19,0,0,1,.05-.13l1-1,.05,0s0,.06,0,.09v5.95a1.89,1.89,0,0,1-1.66,1.91l-.06,0Z"/><path class="cls-2" d="M16.22,6.09a1.18,1.18,0,0,1-.37.49l-.34.35L13.73,5.11c.18-.19.35-.4.55-.58a.47.47,0,0,1,.67,0l1.11,1.11a2.26,2.26,0,0,1,.16.26Z"/><path class="cls-2" d="M13.41,5.38l1.8,1.84-4,4L9.42,9.35Z"/><path class="cls-2" d="M8.4,12.17l.72-2.51,1.76,1.81Z"/></g></g></svg>