<svg xmlns="http://www.w3.org/2000/svg" viewBox="0 0 14.29 14.29"><defs><style>.cls-1{fill:#fff;}</style></defs><title>icono lista</title><g id="Capa_2" data-name="Capa 2"><g id="Capa_1-2" data-name="Capa 1"><path class="cls-1" d="M7.14,0a7.15,7.15,0,1,0,7.15,7.15A7.15,7.15,0,0,0,7.14,0ZM3.4,10.22a.7.7,0,0,1,0-1.4.7.7,0,1,1,0,1.4Zm0-2.38a.7.7,0,0,1,0-1.39.7.7,0,1,1,0,1.39Zm0-2.37a.69.69,0,0,1-.68-.68.7.7,0,0,1,.68-.72.71.71,0,0,1,.71.72A.71.71,0,0,1,3.4,5.47Zm8.18,4.66H4.67V8.9h6.91Zm0-2.37H4.67V6.53h6.91Zm0-2.37H4.67V4.16h6.91Z"/></g></g></svg>